<svg width="20" height="20" viewBox="0 0 20 20" fill="none" xmlns="http://www.w3.org/2000/svg">
    <path d="M13.0891 19.8446C12.5169 19.6704 11.9447 19.5087 11.385 19.3346C11.3725 19.2848 11.3601 19.2351 11.3477 19.1729C12.5293 18.9117 13.6737 18.551 14.7061 17.929C15.7386 17.3071 16.6342 16.5234 17.4054 15.5283C17.7412 17.1205 16.5098 19.1605 14.843 19.8322C14.2583 19.8446 13.6737 19.8446 13.0891 19.8446Z" fill="white"/>
    <path d="M1.35841 9.94284C1.15939 5.68876 4.77909 1.29786 10.0407 1.27298C14.7923 1.26054 18.723 5.19121 18.7355 9.9304C18.7355 14.7069 14.8048 18.65 10.0283 18.6251C4.76665 18.6127 1.14695 14.2218 1.35841 9.94284ZM6.29662 10.2911C5.00299 10.2911 3.93325 11.3111 3.93325 12.5799C3.92081 13.8735 4.99055 14.9432 6.29662 14.9557C7.56538 14.9557 8.69732 13.9108 8.67244 12.6421C8.64756 11.1992 7.50319 10.2165 6.29662 10.2911ZM7.56538 3.8105C6.28418 3.79806 5.20201 4.83048 5.17713 6.0868C5.15225 7.35557 6.23443 8.46262 7.52807 8.4875C8.79683 8.49994 9.92876 7.39288 9.92876 6.12412C9.9412 4.88024 8.84658 3.8105 7.56538 3.8105ZM14.7923 13.774C14.7923 12.5052 13.7475 11.4355 12.4787 11.4355C11.1851 11.4231 10.1278 12.4928 10.1402 13.7989C10.1402 15.1174 11.1104 16.1001 12.4538 16.1001C13.8097 16.1125 14.7923 15.1298 14.7923 13.774ZM16.0487 7.33069C16.0487 5.99973 15.0287 4.95487 13.7226 4.96731C12.4538 4.96731 11.3965 6.01217 11.3965 7.29337C11.3965 8.6492 12.3668 9.63187 13.735 9.63187C15.066 9.61943 16.0362 8.66164 16.0487 7.33069ZM10.9363 10.0424C10.9487 9.4826 10.5507 9.07212 9.97852 9.05968C9.41877 9.05968 9.03317 9.42041 9.02073 9.95528C8.99585 10.5399 9.36901 10.9504 9.92876 10.9628C10.5009 10.9877 10.9239 10.6021 10.9363 10.0424Z" fill="white"/>
    <path d="M15.7607 2.5542C17.2783 2.84029 18.8705 2.9398 19.6665 4.55685C20.388 6.02463 19.7785 7.38046 19.2809 8.76117C18.8207 6.27341 17.639 4.23344 15.7607 2.5542Z" fill="white"/>
    <path d="M8.60787 0.65053C6.26937 1.14808 4.27916 2.21782 2.66211 4.02145C2.81138 2.72781 2.98552 1.47149 4.10501 0.625653C5.58523 -0.493842 7.09033 0.1281 8.60787 0.65053Z" fill="white"/>
    <path d="M0.63367 11.5098C1.16854 13.8109 2.30047 15.7265 4.06679 17.2938C2.73583 17.0948 1.42975 16.9455 0.571476 15.7638C-0.436069 14.3458 0.0863615 12.9278 0.63367 11.5098Z" fill="white"/>
</svg>
