<svg width="1920" height="474" viewBox="0 0 1920 474" fill="none" xmlns="http://www.w3.org/2000/svg">
    <path fill-rule="evenodd" clip-rule="evenodd" d="M2138 149.805L2025.67 109.357C1913.33 68.9103 1688.67 -11.9842 1464 1.49823C1239.33 14.9806 1014.67 122.84 790 136.322C565.333 149.804 340.667 68.9101 116 55.4277C-108.667 41.9452 -333.333 95.8748 -445.667 122.84L-558 149.804L-558 1102L-445.667 1102C-333.333 1102 -108.667 1102 116 1102C340.667 1102 565.333 1102 790 1102C1014.67 1102 1239.33 1102 1464 1102C1688.67 1102 1913.33 1102 2025.67 1102L2138 1102L2138 149.805Z" fill="#25BDBE"/>
    <path fill-rule="evenodd" clip-rule="evenodd" d="M2138 175.805L2034.75 135.358C1931.5 94.9104 1725 14.016 1518.5 27.4984C1312 40.9808 1105.5 148.84 899 162.322C692.5 175.805 486 94.9103 279.5 81.4278C73.0001 67.9454 -133.5 121.875 -236.75 148.84L-340 175.804L-340 1128L-236.75 1128C-133.5 1128 73 1128 279.5 1128C486 1128 692.5 1128 899 1128C1105.5 1128 1312 1128 1518.5 1128C1725 1128 1931.5 1128 2034.75 1128L2138 1128L2138 175.805Z" fill="url(#paint0_linear)"/>
    <defs>
        <linearGradient id="paint0_linear" x1="-340" y1="918.5" x2="1571" y2="26.0006" gradientUnits="userSpaceOnUse">
            <stop stop-color="#00072D"/>
            <stop offset="1" stop-color="#2B3D9E" stop-opacity="0.85"/>
        </linearGradient>
    </defs>
</svg>
