<svg width="1919" height="687" viewBox="0 0 1919 687" fill="none" xmlns="http://www.w3.org/2000/svg">
    <path fill-rule="evenodd" clip-rule="evenodd" d="M5.18951e-05 93.3895L79.9584 68.1743C159.917 42.9591 319.833 -7.47141 479.75 0.933697C639.667 9.3388 799.583 76.5795 959.5 84.9845C1119.42 93.3896 1279.33 42.9592 1439.25 34.5541C1599.17 26.1491 1759.08 59.7694 1839.04 76.5796L1919 93.3897L1919 687L1839.04 687C1759.08 687 1599.17 687 1439.25 687C1279.33 687 1119.42 687 959.5 687C799.583 687 639.667 687 479.75 687C319.833 687 159.917 687 79.9583 687L0 687L5.18951e-05 93.3895Z" fill="#F8F8F8"/>
</svg>
