<svg width="360" height="399" viewBox="0 0 360 399" fill="none" xmlns="http://www.w3.org/2000/svg">
    <path fill-rule="evenodd" clip-rule="evenodd" d="M535.006 50.8528L497.386 37.3072C459.766 23.7617 384.526 -3.32954 309.286 1.18565C234.046 5.70084 158.806 41.8224 83.5663 46.3376C8.32639 50.8528 -66.9135 23.7616 -142.153 19.2464C-217.393 14.7312 -292.633 32.792 -330.253 41.8223L-367.873 50.8527L-367.873 429.739L-330.253 429.739C-292.633 429.739 -217.393 429.739 -142.154 429.739C-66.9136 429.739 8.32635 429.739 83.5663 429.739C158.806 429.739 234.046 429.739 309.286 429.739C384.526 429.739 459.766 429.739 497.386 429.739L535.006 429.739L535.006 50.8528Z" fill="#25BDBE"/>
    <path fill-rule="evenodd" clip-rule="evenodd" d="M535.006 59.5601L500.428 46.0146C465.85 32.469 396.694 5.37777 327.538 9.89296C258.382 14.4081 189.226 50.5297 120.07 55.0449C50.914 59.5601 -18.242 32.4689 -87.398 27.9537C-156.554 23.4385 -225.71 41.4993 -260.288 50.5297L-294.866 59.56L-294.866 428.446L-260.288 428.446C-225.71 428.446 -156.554 428.446 -87.398 428.446C-18.242 428.446 50.9139 428.446 120.07 428.446C189.226 428.447 258.382 428.447 327.538 428.447C396.694 428.447 465.85 428.447 500.428 428.447L535.006 428.447L535.006 59.5601Z" fill="url(#paint0_linear)"/>
    <defs>
        <linearGradient id="paint0_linear" x1="-294.866" y1="348.78" x2="371.912" y2="74.5292" gradientUnits="userSpaceOnUse">
            <stop stop-color="#00072D"/>
            <stop offset="1" stop-color="#2B3D9E" stop-opacity="0.85"/>
        </linearGradient>
    </defs>
</svg>
