<svg width="18" height="14" viewBox="0 0 18 14" fill="none" xmlns="http://www.w3.org/2000/svg">
    <path d="M16.8711 3.81135C16.8225 3.24687 16.6425 2.70161 16.3453 2.21924C16.0481 1.73686 15.6421 1.33078 15.1598 1.03353C14.044 0.50171 12.8294 0.208844 11.5938 0.173705L11.356 0.149826C8.95125 -0.100245 6.52422 -0.0370648 4.13574 0.337783C3.58133 0.413782 3.0354 0.542432 2.50539 0.721999C1.89945 0.916527 1.35826 1.27312 0.94045 1.75316C0.418469 2.4938 0.134185 3.37572 0.125305 4.28177C0.0272751 5.26543 -0.0132974 6.25396 0.00380378 7.24235C0.0152266 7.64111 0.0307909 8.10633 0.0692131 8.56324C0.108087 9.61601 0.40437 10.6432 0.932147 11.555C1.30046 12.0564 1.77707 12.4684 2.32647 12.7603C2.87587 13.0523 3.48397 13.2167 4.10564 13.2414C5.5212 13.4325 6.94655 13.5424 8.37467 13.5706H8.466C9.89708 13.5579 11.3253 13.4402 12.7392 13.2185C13.8349 13.145 14.8866 12.7586 15.7693 12.1053C16.5366 11.2736 16.9467 10.174 16.9116 9.04299C17.1109 7.30395 17.0973 5.5471 16.8711 3.81135ZM16.0196 8.96823C16.0602 9.86786 15.7577 10.7494 15.1733 11.4345C14.4181 11.9648 13.5305 12.275 12.6094 12.3307C11.2094 12.5481 9.79545 12.6622 8.37879 12.6723C6.9847 12.6439 5.59337 12.5361 4.21155 12.3494C3.71946 12.3455 3.23501 12.2274 2.79638 12.0043C2.35774 11.7812 1.97691 11.4592 1.68397 11.0638C1.24057 10.2753 0.993735 9.39155 0.964344 8.48742C0.926961 8.05335 0.912449 7.60476 0.901027 7.21742C0.885108 6.26403 0.924649 5.31052 1.01942 4.36172C1.01745 3.63723 1.23065 2.92848 1.63206 2.32535C1.94888 1.97089 2.35586 1.70891 2.80969 1.56728C3.28524 1.4077 3.77473 1.29332 4.27176 1.22564C6.58498 0.862431 8.93556 0.801002 11.2646 1.04288L11.5066 1.06676C12.6194 1.0963 13.7146 1.35174 14.7257 1.81756C15.0872 2.05204 15.3894 2.36717 15.6085 2.73817C15.8276 3.10917 15.9576 3.52592 15.9885 3.95569C16.2021 5.61904 16.2133 7.30219 16.0217 8.96823H16.0196Z" fill="white"/>
    <path d="M13.3067 3.23691L8.71895 6.85378C8.66678 6.90114 8.59881 6.92738 8.52836 6.92738C8.4579 6.92738 8.39 6.90114 8.33784 6.85378L3.75006 3.23691C3.70376 3.20043 3.65068 3.17343 3.59395 3.15744C3.53722 3.14146 3.47793 3.13681 3.4194 3.14375C3.36087 3.15069 3.30425 3.1691 3.25283 3.19791C3.20141 3.22672 3.15615 3.26538 3.11967 3.31168C3.08319 3.35798 3.05624 3.41101 3.04025 3.46774C3.02427 3.52447 3.01962 3.58379 3.02656 3.64232C3.03351 3.70085 3.05188 3.75745 3.08069 3.80887C3.1095 3.86029 3.14816 3.90553 3.19446 3.942L7.7823 7.55888C7.99241 7.73243 8.25641 7.82738 8.52893 7.82738C8.80145 7.82738 9.06545 7.73243 9.27556 7.55888L13.8633 3.942C13.9568 3.86833 14.0173 3.76053 14.0313 3.64232C14.0453 3.52411 14.0118 3.40518 13.9381 3.31168C13.8645 3.21818 13.7567 3.15777 13.6385 3.14375C13.5202 3.12973 13.4013 3.16323 13.3078 3.23691H13.3067Z" fill="#28BCC0"/>
</svg>
