<!--<svg width="360" height="727" viewBox="0 0 360 727" fill="none" xmlns="http://www.w3.org/2000/svg">-->
<!--    <path d="M180.5 28.543C119.833 25.3544 59.1667 13.6984 -1.49994 -0.000610352L-1.49994 630.559L180.5 630.559L362 630.559L362 18.281C301.5 26.4817 241 31.7229 180.5 28.543Z" fill="#F8F8F8"/>-->
<!--    <path fill-rule="evenodd" clip-rule="evenodd" d="M535.006 378.853L497.386 365.307C459.766 351.762 384.526 324.67 309.286 329.186C234.046 333.701 158.806 369.822 83.5663 374.338C8.32639 378.853 -66.9135 351.762 -142.153 347.246C-217.393 342.731 -292.633 360.792 -330.253 369.822L-367.873 378.853L-367.873 757.739L-330.253 757.739C-292.633 757.739 -217.393 757.739 -142.154 757.739C-66.9136 757.739 8.32635 757.739 83.5663 757.739C158.806 757.739 234.046 757.739 309.286 757.739C384.526 757.739 459.766 757.739 497.386 757.739L535.006 757.739L535.006 378.853Z" fill="#25BDBE"/>-->
<!--    <path fill-rule="evenodd" clip-rule="evenodd" d="M535.006 387.56L500.428 374.015C465.85 360.469 396.694 333.378 327.538 337.893C258.382 342.408 189.226 378.53 120.07 383.045C50.914 387.56 -18.242 360.469 -87.398 355.954C-156.554 351.439 -225.71 369.499 -260.288 378.53L-294.866 387.56L-294.866 756.446L-260.288 756.446C-225.71 756.446 -156.554 756.446 -87.398 756.446C-18.242 756.446 50.9139 756.446 120.07 756.446C189.226 756.447 258.382 756.447 327.538 756.447C396.694 756.447 465.85 756.447 500.428 756.447L535.006 756.447L535.006 387.56Z" fill="url(#paint0_linear)"/>-->
<!--    <defs>-->
<!--        <linearGradient id="paint0_linear" x1="-294.866" y1="676.78" x2="371.912" y2="402.529" gradientUnits="userSpaceOnUse">-->
<!--            <stop stop-color="#00072D"/>-->
<!--            <stop offset="1" stop-color="#2B3D9E" stop-opacity="0.85"/>-->
<!--        </linearGradient>-->
<!--    </defs>-->
<!--</svg>-->

<svg width="360" height="631" viewBox="0 0 360 631" fill="none" xmlns="http://www.w3.org/2000/svg">
<path d="M180.5 28.543C119.833 25.3544 59.1667 13.6984 -1.49994 -0.000610352L-1.49994 630.559L180.5 630.559L362 630.559L362 18.281C301.5 26.4817 241 31.7229 180.5 28.543Z" fill="#F8F8F8"/>
</svg>
