<svg width="20" height="20" viewBox="0 0 20 20" fill="none" xmlns="http://www.w3.org/2000/svg">
    <path d="M14.0419 0H5.958C2.67272 0 0 2.67273 0 5.95802V14.0419C0 17.3271 2.67272 20 5.95806 20H14.0419C17.3271 20 20 17.3272 20 14.0419V5.95802C19.9999 2.67273 17.3271 0 14.0419 0ZM17.988 14.042C17.988 16.2213 16.2212 17.988 14.0419 17.988H5.95806C3.77875 17.988 2.01205 16.2213 2.01205 14.042V5.95808C2.01205 3.77876 3.77875 2.01198 5.95806 2.01198H14.0419C16.2212 2.01198 17.988 3.77883 17.988 5.95808V14.042Z" fill="white"/>
    <path d="M9.99604 4.82861C7.14383 4.82861 4.82324 7.14915 4.82324 10.0013C4.82324 12.8533 7.14383 15.1738 9.99604 15.1738C12.8482 15.1738 15.1686 12.8535 15.1686 10.0013C15.1686 7.14915 12.8482 4.82861 9.99604 4.82861ZM9.99604 13.1618C8.25041 13.1618 6.83523 11.747 6.83523 10.0013C6.83523 8.25565 8.25041 6.84056 9.99604 6.84056C11.7417 6.84056 13.1566 8.25558 13.1566 10.0013C13.1566 11.7469 11.7417 13.1618 9.99604 13.1618Z" fill="white"/>
</svg>
