<svg width="20" height="21" viewBox="0 0 20 21" fill="none" xmlns="http://www.w3.org/2000/svg">
    <path d="M0.272461 6.71973H4.55667V20.6324H0.272461V6.71973Z" fill="white"/>
    <path d="M2.4415 0.0104061C2.13425 -0.0205057 1.82439 0.017631 1.53146 0.122412C1.23854 0.227194 0.968892 0.396348 0.739529 0.619212C0.510165 0.842076 0.326055 1.11382 0.198803 1.41731C0.0715517 1.7208 0.00391792 2.04945 0.000165225 2.38256C-0.00358747 2.71567 0.0566223 3.04601 0.176999 3.35275C0.297376 3.65949 0.47531 3.93598 0.699585 4.1648C0.92386 4.39362 1.18961 4.56981 1.48009 4.68225C1.77057 4.79469 2.07948 4.84095 2.38734 4.81811H2.4151C2.72264 4.8472 3.03243 4.80716 3.32492 4.70053C3.61741 4.5939 3.88625 4.42299 4.11449 4.19858C4.34274 3.97417 4.52542 3.70112 4.65102 3.39668C4.77662 3.09223 4.84241 2.76299 4.84424 2.42972C4.84607 2.09646 4.7839 1.76639 4.66165 1.46036C4.5394 1.15433 4.35973 0.87897 4.13397 0.651652C3.90821 0.424334 3.64126 0.249991 3.34997 0.139624C3.05867 0.0292561 2.74934 -0.0147416 2.4415 0.0104061Z" fill="white"/>
    <path d="M15.0651 6.39101C14.2889 6.3569 13.5188 6.55295 12.8385 6.95791C12.1582 7.36287 11.5936 7.96124 11.2061 8.6881V6.71477H6.92188V20.6282H11.2061V12.8613C11.1896 12.4791 11.2373 12.0968 11.3469 11.7329C11.5073 11.2408 11.8046 10.8143 12.1981 10.5116C12.5915 10.2089 13.062 10.0448 13.5452 10.0417C15.0956 10.0417 15.7157 11.3177 15.7157 13.188V20.6318H19.9993V12.6516C19.9993 8.37748 17.8856 6.38955 15.0672 6.38955L15.0651 6.39101Z" fill="white"/>
</svg>
