<svg width="13" height="15" viewBox="0 0 13 15" fill="none" xmlns="http://www.w3.org/2000/svg">
    <path d="M12.5696 6.02549C12.545 7.60246 11.9737 8.95067 10.9198 10.1334C9.57044 11.6422 8.26046 13.1803 6.93078 14.7085C6.92093 14.7231 6.90616 14.7377 6.89631 14.7524C6.6156 15.0785 6.38414 15.0833 6.10343 14.7621C5.72422 14.3289 5.34994 13.8957 4.97567 13.4625C3.95625 12.2896 2.94175 11.1166 1.91741 9.94844C1.08513 8.99447 0.582807 7.89449 0.459688 6.64362C0.272549 4.70648 0.883215 3.0419 2.28676 1.68396C3.28156 0.715387 4.49304 0.179997 5.87197 0.0339811C8.90067 -0.287253 11.7619 1.69856 12.4366 4.74055C12.5302 5.16399 12.5745 5.59231 12.5696 6.02549ZM1.22795 5.99628C1.22795 7.22281 1.65147 8.42014 2.42466 9.31084C3.70508 10.7905 4.99044 12.2652 6.27579 13.74C6.49741 13.9979 6.49741 13.9931 6.71902 13.74C7.93543 12.3431 9.14198 10.9365 10.3682 9.5542C11.4517 8.33253 11.9392 6.92105 11.7176 5.31001C11.3138 2.32643 8.49685 0.335747 5.53708 0.880871C3.0107 1.34812 1.22302 3.48968 1.22795 5.99628Z" fill="white"/>
    <path d="M6.4924 8.64177C5.02483 8.64177 3.82812 7.45417 3.82812 6.00375C3.82812 4.55333 5.02976 3.37061 6.50225 3.37061C7.96982 3.37061 9.17146 4.5582 9.16653 6.00862C9.16161 7.45904 7.9649 8.64177 6.4924 8.64177ZM6.49733 7.85328C7.49705 7.86302 8.35395 7.03073 8.3638 6.04269C8.37365 5.01085 7.5463 4.16396 6.51703 4.15422C5.47791 4.14449 4.62593 4.97191 4.62101 5.98915C4.62101 7.01613 5.45329 7.84355 6.49733 7.85328Z" fill="#25BDBE"/>
</svg>
