<svg width="16" height="16" viewBox="0 0 16 16" fill="none" xmlns="http://www.w3.org/2000/svg">
    <path d="M3.83225 10.3031C5.19018 11.9297 6.88152 13.2487 8.79302 14.1717C9.65805 14.6176 10.6 14.8964 11.5692 14.9935C11.6361 14.9935 11.7003 14.999 11.7673 14.999C12.1023 15.009 12.4355 14.9459 12.7435 14.8142C13.0515 14.6825 13.3268 14.4854 13.5502 14.2366C13.5549 14.2323 13.5589 14.2274 13.5621 14.222C13.7389 14.0188 13.9266 13.8252 14.1243 13.6422C14.261 13.5116 14.3995 13.3756 14.5352 13.2359C14.682 13.1041 14.7992 12.9431 14.8793 12.7632C14.9594 12.5833 15.0005 12.3887 15 12.1919C14.9995 11.9952 14.9573 11.8008 14.8763 11.6213C14.7953 11.4419 14.6772 11.2814 14.5297 11.1504L12.778 9.40012C12.6485 9.25597 12.4907 9.13985 12.3144 9.05896C12.138 8.97807 11.9468 8.93414 11.7526 8.92989C11.5572 8.93497 11.3648 8.97885 11.1867 9.05897C11.0086 9.13909 10.8483 9.25384 10.7153 9.39646L9.67255 10.4346C9.58084 10.3798 9.4772 10.3305 9.38457 10.284C9.27499 10.2312 9.16816 10.173 9.06449 10.1096C8.06165 9.46199 7.17113 8.65653 6.42773 7.72466C6.06906 7.29421 5.7693 6.81832 5.53628 6.30942C5.81142 6.0629 6.06638 5.8045 6.31401 5.5525C6.40572 5.46119 6.49193 5.36989 6.58181 5.27858C6.72792 5.14527 6.8459 4.98433 6.92888 4.80515C7.01186 4.62597 7.05818 4.43214 7.06514 4.23496C7.05838 4.03739 7.01178 3.84318 6.92812 3.6639C6.84446 3.48462 6.72544 3.32391 6.57814 3.19133L5.71054 2.32758C5.60873 2.22623 5.51243 2.12762 5.41338 2.02628C5.22446 1.83271 5.0236 1.6291 4.8255 1.44648C4.69276 1.30823 4.53378 1.19757 4.35778 1.12093C4.18177 1.04429 3.99223 1.00318 3.80015 1C3.40863 1.0087 3.03618 1.17 2.76287 1.44922L1.67331 2.53393C1.28413 2.91308 1.04708 3.42044 1.00656 3.96104C0.9672 4.75467 1.10534 5.5471 1.41101 6.28112C1.97619 7.75216 2.79563 9.11337 3.83225 10.3031ZM1.71734 4.0213C1.74544 3.64729 1.9102 3.29648 2.18049 3.0352L3.26454 1.95688C3.40403 1.80842 3.59618 1.71997 3.80015 1.71036C3.90011 1.71511 3.99809 1.73988 4.08822 1.78318C4.17836 1.82648 4.2588 1.88742 4.32475 1.96236C4.5201 2.14497 4.70352 2.32758 4.90162 2.5312C5.00067 2.63254 5.10248 2.73389 5.20428 2.83889L6.07189 3.70265C6.15156 3.77039 6.21691 3.85322 6.26415 3.94633C6.31138 4.03943 6.33955 4.14096 6.34703 4.245C6.33955 4.34904 6.31138 4.45057 6.26415 4.54368C6.21691 4.63678 6.15156 4.71962 6.07189 4.78736C5.98017 4.87866 5.88846 4.96997 5.79675 5.06127C5.52161 5.33519 5.27215 5.59176 4.99242 5.83828L4.97775 5.85289C4.88901 5.93162 4.82724 6.03602 4.80109 6.15145C4.77494 6.26688 4.78572 6.38757 4.83192 6.4966C4.83192 6.50573 4.83742 6.51121 4.84109 6.51942C5.10232 7.11722 5.44823 7.67468 5.86828 8.17479C6.65809 9.1709 7.6068 10.0312 8.67654 10.7213C8.80087 10.7977 8.92914 10.8674 9.06082 10.9304C9.17041 10.9831 9.27724 11.0413 9.3809 11.1048L9.413 11.1221C9.4999 11.1686 9.59684 11.1934 9.69548 11.1943C9.7773 11.1916 9.85779 11.1728 9.93225 11.139C10.0067 11.1051 10.0737 11.0569 10.1293 10.9971L11.2198 9.91143C11.2871 9.8355 11.3688 9.77359 11.4603 9.72924C11.5517 9.68489 11.6511 9.65899 11.7526 9.65303C11.8516 9.65918 11.9483 9.68525 12.0369 9.72966C12.1255 9.77407 12.2041 9.83591 12.268 9.91143L14.0243 11.6572C14.1067 11.7234 14.173 11.8072 14.2182 11.9024C14.2634 11.9977 14.2865 12.1019 14.2856 12.2072C14.2847 12.3126 14.2599 12.4164 14.2131 12.5108C14.1663 12.6053 14.0986 12.6881 14.0152 12.7529C13.8932 12.8834 13.7648 13.0076 13.6281 13.1382C13.4143 13.3371 13.211 13.5471 13.0192 13.7673C12.8624 13.9411 12.6692 14.0785 12.4532 14.1697C12.2372 14.261 12.0036 14.3037 11.7691 14.295C11.7196 14.295 11.6673 14.295 11.6178 14.2895C10.741 14.1996 9.88909 13.9459 9.10668 13.5417C7.28669 12.663 5.6768 11.4065 4.38528 9.85664C3.40249 8.72741 2.62392 7.437 2.08419 6.04281C1.81296 5.40436 1.68765 4.71388 1.71734 4.0213Z" fill="white" stroke="white" stroke-width="0.2"/>
</svg>
