<svg width="15" height="15" viewBox="0 0 15 15" fill="none" xmlns="http://www.w3.org/2000/svg">
    <path d="M1.00043 7.30447C1.00043 3.82756 3.82862 1 7.3049 1C10.7812 1 13.6094 3.82756 13.6094 7.30448C13.6094 10.7808 10.7812 13.6089 7.3049 13.6089C3.82862 13.6089 1.00043 10.7808 1.00043 7.30447" stroke="#27BCC0"/>
    <path d="M4.64311 8.40396C4.64311 8.28355 4.68913 8.1625 4.78118 8.07045L6.96883 5.87208C7.05772 5.78319 7.17814 5.73339 7.30423 5.73339C7.42969 5.73339 7.5501 5.78319 7.639 5.87208L9.82791 8.07045C10.012 8.25518 10.012 8.55401 9.82665 8.73873C9.6413 8.92282 9.34183 8.92219 9.15774 8.73747L7.30423 6.87576L5.45071 8.73747C5.26662 8.92219 4.96779 8.92282 4.78244 8.73873C4.68913 8.64668 4.64311 8.52501 4.64311 8.40396Z" fill="#27BCC0"/>
</svg>
