<svg width="15" height="15" viewBox="0 0 15 15" fill="none" xmlns="http://www.w3.org/2000/svg">
    <path d="M1.17231 7.30447C1.17231 3.82756 4.00049 1 7.47678 1C10.9531 1 13.7813 3.82756 13.7813 7.30448C13.7813 10.7808 10.9531 13.6089 7.47678 13.6089C4.00049 13.6089 1.1723 10.7808 1.17231 7.30447" stroke="#002653"/>
    <path d="M10.1372 6.20575C10.1372 6.32617 10.0911 6.44721 9.99909 6.53926L7.81144 8.73763C7.72255 8.82652 7.60213 8.87632 7.47604 8.87632C7.35058 8.87632 7.23017 8.82652 7.14128 8.73763L4.95236 6.53926C4.76827 6.35453 4.76827 6.0557 4.95362 5.87098C5.13898 5.68689 5.43844 5.68752 5.62253 5.87224L7.47604 7.73395L9.32956 5.87224C9.51365 5.68752 9.81248 5.68689 9.99783 5.87098C10.0911 5.96303 10.1372 6.0847 10.1372 6.20575Z" fill="#27BCC0"/>
</svg>
