<svg width="1292" height="532" viewBox="0 0 1292 532" fill="none" xmlns="http://www.w3.org/2000/svg">
    <path d="M1148.26 66.2597C1149.44 63.1713 1148.22 59.7432 1145.88 57.4041C1143.96 55.4872 1142.34 53.2739 1141.01 50.764C1138.76 46.7983 1137.64 42.4077 1137.64 37.5923C1137.64 28.8112 1140.87 21.588 1147.34 15.9227C1153.52 9.97425 1161.11 7 1170.11 7C1179.1 7.00001 1186.84 9.97425 1193.3 15.9228C1199.77 21.588 1203 28.8112 1203 37.5923C1203 42.1245 1202.02 46.7983 1200.05 51.6137C1197.8 56.4292 1194.43 63.2275 1189.93 72.0086C1187.96 75.9742 1185.57 81.073 1182.76 87.3047C1180.31 92.2403 1177.86 97.1759 1175.41 102.112C1174.23 104.493 1171.8 106 1169.14 106L1143.19 106C1138.27 106 1134.89 101.076 1136.65 96.4914L1148.26 66.2597Z" stroke="#25BDBE" stroke-width="14"/>
    <path d="M1229.45 66.3109C1230.66 63.2006 1229.43 59.7373 1227.05 57.3927C1225.11 55.4785 1223.47 53.2689 1222.13 50.764C1219.85 46.7983 1218.7 42.4077 1218.7 37.5923C1218.7 28.8112 1221.98 21.588 1228.54 15.9227C1234.82 9.97425 1242.51 7 1251.64 7C1260.76 7.00001 1268.6 9.97425 1275.16 15.9228C1281.72 21.588 1285 28.8112 1285 37.5923C1285 42.1245 1284 46.7983 1282.01 51.6137C1279.72 56.4292 1276.3 63.2275 1271.74 72.0086C1269.74 75.9742 1267.32 81.073 1264.47 87.3047C1261.98 92.2522 1259.49 97.1996 1257 102.147C1255.81 104.509 1253.39 106 1250.75 106L1224.24 106C1219.31 106 1215.93 101.049 1217.71 96.4602L1229.45 66.3109Z" stroke="#25BDBE" stroke-width="14"/>
    <path d="M143.745 465.74C142.559 468.829 143.78 472.257 146.12 474.596C148.037 476.513 149.659 478.726 150.988 481.236C153.237 485.202 154.361 489.592 154.361 494.408C154.361 503.189 151.129 510.412 144.663 516.077C138.478 522.026 130.888 525 121.892 525C112.896 525 105.165 522.026 98.6988 516.077C92.2329 510.412 89 503.189 89 494.408C89 489.876 89.9839 485.202 91.9518 480.386C94.2008 475.571 97.5743 468.773 102.072 459.991C104.04 456.026 106.43 450.927 109.241 444.695C111.69 439.76 114.139 434.824 116.589 429.888C117.77 427.507 120.2 426 122.859 426L148.815 426C153.725 426 157.11 430.924 155.35 435.509L143.745 465.74Z" stroke="#25BDBE" stroke-width="14"/>
    <path d="M62.5467 465.689C61.3357 468.799 62.5716 472.263 64.9471 474.607C66.8865 476.522 68.5287 478.731 69.8735 481.236C72.1546 485.202 73.2952 489.592 73.2952 494.408C73.2952 503.189 70.0161 510.412 63.4578 516.077C57.1847 522.026 49.4859 525 40.3614 525C31.2369 525 23.3956 522.026 16.8373 516.077C10.2791 510.412 6.99999 503.189 6.99999 494.408C6.99999 489.876 7.99798 485.202 9.99397 480.386C12.2751 475.571 15.6968 468.773 20.259 459.991C22.255 456.026 24.6787 450.927 27.5301 444.695C30.0203 439.748 32.5104 434.8 35.0005 429.853C36.1895 427.491 38.6085 426 41.2532 426L67.7626 426C72.6874 426 76.0724 430.951 74.2856 435.54L62.5467 465.689Z" stroke="#25BDBE" stroke-width="14"/>
    <path opacity="0.23" d="M1107 57H27C17.0589 57 9 65.0589 9 75V424.2M1281 121.8V444C1281 453.941 1272.94 462 1263 462H174" stroke="#25BDBE" stroke-width="13" stroke-linecap="round"/>
</svg>
