<svg width="335" height="312" viewBox="0 0 335 312" fill="none" xmlns="http://www.w3.org/2000/svg">
    <path d="M65.7836 284.799C65.6143 285.24 65.7799 285.736 66.1583 286.019C67.5542 287.064 68.6752 288.385 69.5213 289.984C70.4978 291.706 70.9861 293.612 70.9861 295.703C70.9861 299.516 69.5823 302.652 66.7748 305.112C64.0893 307.695 60.7935 308.986 56.8873 308.986C52.9812 308.986 49.6243 307.695 46.8168 305.112C44.0092 302.652 42.6055 299.516 42.6055 295.703C42.6055 293.735 43.0327 291.706 43.8872 289.615C44.8637 287.524 46.3285 284.572 48.2816 280.759C49.1361 279.037 50.1736 276.823 51.3943 274.117C52.6452 271.596 53.896 269.076 55.1469 266.555C55.3157 266.215 55.6628 266 56.0426 266L71.5452 266C72.2467 266 72.7302 266.703 72.4788 267.358L65.7836 284.799Z" stroke="#25BDBE" stroke-width="6"/>
    <path d="M30.5121 284.792C30.3391 285.236 30.5068 285.737 30.8905 286.02C32.3058 287.064 33.4424 288.386 34.3003 289.984C35.2908 291.706 35.7861 293.612 35.7861 295.703C35.7861 299.516 34.3622 302.652 31.5146 305.112C28.7907 307.695 25.4478 308.986 21.4859 308.986C17.5239 308.986 14.1191 307.695 11.2715 305.112C8.42382 302.652 6.99999 299.516 6.99999 295.703C7 293.735 7.43333 291.706 8.30001 289.615C9.2905 287.524 10.7762 284.572 12.7572 280.759C13.6239 279.037 14.6763 276.823 15.9144 274.117C17.184 271.595 18.4535 269.072 19.7231 266.55C19.893 266.212 20.2385 266 20.6164 266L36.3665 266C37.07 266 37.5536 266.707 37.2983 267.362L30.5121 284.792Z" stroke="#25BDBE" stroke-width="6"/>
    <path d="M273.216 27.1875C273.386 26.7463 273.22 26.2504 272.842 25.9672C271.446 24.9227 270.325 23.6012 269.479 22.0027C268.502 20.2808 268.014 18.3744 268.014 16.2835C268.014 12.4706 269.418 9.33423 272.225 6.87433C274.911 4.29143 278.207 2.99998 282.113 2.99998C286.019 2.99998 289.376 4.29143 292.183 6.87433C294.991 9.33423 296.395 12.4706 296.395 16.2835C296.395 18.2514 295.967 20.2808 295.113 22.3717C294.136 24.4626 292.671 27.4145 290.718 31.2274C289.864 32.9493 288.826 35.1632 287.606 37.8691C286.355 40.3899 285.104 42.9106 283.853 45.4313C283.684 45.7716 283.337 45.9868 282.957 45.9868L267.455 45.9868C266.753 45.9868 266.27 45.2833 266.521 44.6284L273.216 27.1875Z" stroke="#25BDBE" stroke-width="6"/>
    <path d="M308.488 27.1948C308.661 26.7505 308.493 26.2495 308.109 25.9663C306.694 24.922 305.558 23.6008 304.7 22.0027C303.709 20.2808 303.214 18.3744 303.214 16.2835C303.214 12.4706 304.638 9.33423 307.485 6.87433C310.209 4.29143 313.552 2.99998 317.514 2.99998C321.476 2.99998 324.881 4.29143 327.729 6.87433C330.576 9.33423 332 12.4706 332 16.2835C332 18.2514 331.567 20.2808 330.7 22.3717C329.709 24.4626 328.224 27.4145 326.243 31.2274C325.376 32.9493 324.324 35.1632 323.086 37.8691C321.816 40.3916 320.546 42.914 319.277 45.4364C319.107 45.7739 318.761 45.9868 318.384 45.9868L302.634 45.9868C301.93 45.9868 301.446 45.2796 301.702 44.624L308.488 27.1948Z" stroke="#25BDBE" stroke-width="6"/>
    <path opacity="0.23" d="M256.033 27H22C12.0589 27 4 35.0589 4 45V269.987M331 69.88V277C331 286.941 322.941 295 313 295H85" stroke="#25BDBE" stroke-width="7" stroke-linecap="round"/>
</svg>
