<svg width="22" height="22" viewBox="0 0 22 22" fill="none" xmlns="http://www.w3.org/2000/svg">
    <path d="M11 22C17.0751 22 22 17.0751 22 11C22 4.92487 17.0751 0 11 0C4.92487 0 0 4.92487 0 11C0 17.0751 4.92487 22 11 22Z" fill="#1A1061"/>
    <path d="M17.5647 8.80221C17.5277 8.37247 17.3906 7.95737 17.1644 7.59014C16.9381 7.22291 16.629 6.91376 16.2619 6.68746C15.4124 6.28259 14.4877 6.05963 13.5471 6.03288L13.366 6.0147C11.5353 5.82432 9.68758 5.87242 7.86924 6.15779C7.44716 6.21565 7.03155 6.31359 6.62806 6.45029C6.16675 6.59839 5.75474 6.86986 5.43667 7.23532C5.03928 7.79916 4.82286 8.47057 4.8161 9.16034C4.74147 9.9092 4.71058 10.6618 4.7236 11.4142C4.7323 11.7178 4.74414 12.072 4.77339 12.4198C4.80299 13.2213 5.02855 14.0033 5.43035 14.6974C5.71074 15.0792 6.07358 15.3928 6.49184 15.6151C6.9101 15.8373 7.37305 15.9625 7.84632 15.9813C8.92399 16.1268 10.0091 16.2104 11.0963 16.2319H11.1659C12.2553 16.2222 13.3426 16.1326 14.419 15.9639C15.2532 15.9079 16.0538 15.6138 16.7259 15.1164C17.31 14.4832 17.6222 13.6461 17.5955 12.7851C17.7472 11.4611 17.7368 10.1236 17.5647 8.80221ZM16.9164 12.7281C16.9473 13.413 16.7171 14.0841 16.2721 14.6057C15.6972 15.0094 15.0214 15.2456 14.3202 15.288C13.2544 15.4535 12.178 15.5404 11.0995 15.5481C10.0382 15.5264 8.97893 15.4444 7.92695 15.3022C7.55232 15.2993 7.18351 15.2093 6.84958 15.0395C6.51565 14.8696 6.22572 14.6245 6.00271 14.3235C5.66515 13.7232 5.47723 13.0504 5.45486 12.3621C5.4264 12.0316 5.41535 11.6901 5.40665 11.3953C5.39453 10.6694 5.42464 9.94353 5.49679 9.22121C5.49528 8.66966 5.6576 8.13008 5.96319 7.67092C6.20438 7.40107 6.51422 7.20162 6.85971 7.0938C7.22175 6.97232 7.5944 6.88524 7.97279 6.83371C9.73384 6.5572 11.5233 6.51044 13.2964 6.69458L13.4807 6.71276C14.3279 6.73524 15.1616 6.92971 15.9314 7.28434C16.2066 7.46285 16.4366 7.70276 16.6034 7.9852C16.7702 8.26764 16.8692 8.58492 16.8927 8.9121C17.0554 10.1784 17.0638 11.4598 16.918 12.7281H16.9164Z" fill="white"/>
    <path d="M14.8501 8.3648L11.3575 11.1183C11.3178 11.1544 11.266 11.1744 11.2124 11.1744C11.1587 11.1744 11.107 11.1544 11.0673 11.1183L7.57466 8.3648C7.53941 8.33703 7.49901 8.31648 7.45582 8.30431C7.41262 8.29214 7.36749 8.2886 7.32293 8.29388C7.27837 8.29917 7.23527 8.31318 7.19612 8.33512C7.15698 8.35705 7.12252 8.38648 7.09475 8.42173C7.06697 8.45697 7.04646 8.49735 7.03429 8.54054C7.02212 8.58373 7.01858 8.62889 7.02386 8.67345C7.02915 8.71801 7.04314 8.76109 7.06507 8.80024C7.08701 8.83939 7.11644 8.87382 7.15168 8.90159L10.6444 11.6551C10.8044 11.7872 11.0053 11.8595 11.2128 11.8595C11.4203 11.8595 11.6213 11.7872 11.7812 11.6551L15.2739 8.90159C15.3451 8.84551 15.3911 8.76344 15.4018 8.67345C15.4124 8.58345 15.3869 8.49291 15.3308 8.42173C15.2747 8.35054 15.1927 8.30456 15.1027 8.29388C15.0127 8.28321 14.9221 8.30872 14.851 8.3648H14.8501Z" fill="#28BCC0"/>
</svg>
