<svg width="22" height="22" viewBox="0 0 22 22" fill="none" xmlns="http://www.w3.org/2000/svg">
    <path d="M11 22C17.0751 22 22 17.0751 22 11C22 4.92487 17.0751 0 11 0C4.92487 0 0 4.92487 0 11C0 17.0751 4.92487 22 11 22Z" fill="#1A1061"/>
    <path d="M7.9297 12.5663C8.90266 13.7318 10.1145 14.6768 11.4841 15.3382C12.1039 15.6576 12.7788 15.8574 13.4732 15.927C13.5212 15.927 13.5672 15.9309 13.6152 15.9309C13.8552 15.9381 14.0939 15.8929 14.3146 15.7985C14.5353 15.7042 14.7326 15.5629 14.8926 15.3847C14.896 15.3816 14.8989 15.3781 14.9012 15.3742C15.0278 15.2286 15.1623 15.0899 15.304 14.9588C15.4019 14.8652 15.5011 14.7677 15.5984 14.6676C15.7035 14.5733 15.7876 14.4579 15.8449 14.329C15.9023 14.2001 15.9318 14.0606 15.9314 13.9197C15.931 13.7787 15.9008 13.6394 15.8428 13.5108C15.7847 13.3822 15.7001 13.2673 15.5944 13.1734L14.3393 11.9193C14.2466 11.816 14.1335 11.7328 14.0071 11.6749C13.8808 11.6169 13.7438 11.5855 13.6046 11.5824C13.4646 11.586 13.3268 11.6175 13.1992 11.6749C13.0715 11.7323 12.9567 11.8145 12.8614 11.9167L12.1143 12.6605C12.0486 12.6213 11.9743 12.586 11.9079 12.5526C11.8294 12.5148 11.7529 12.4731 11.6786 12.4276C10.9601 11.9637 10.322 11.3865 9.78937 10.7189C9.53238 10.4104 9.3176 10.0695 9.15064 9.70484C9.34778 9.52821 9.53046 9.34307 9.70789 9.16251C9.7736 9.09709 9.83537 9.03166 9.89977 8.96624C10.0044 8.87072 10.089 8.75541 10.1484 8.62703C10.2079 8.49865 10.2411 8.35977 10.2461 8.21849C10.2412 8.07693 10.2078 7.93778 10.1479 7.80932C10.088 7.68087 10.0027 7.56572 9.89714 7.47073L9.2755 6.85185C9.20255 6.77923 9.13356 6.70858 9.06259 6.63596C8.92722 6.49727 8.78331 6.35138 8.64137 6.22054C8.54626 6.12148 8.43235 6.04219 8.30624 5.98728C8.18013 5.93237 8.04433 5.90292 7.9067 5.90063C7.62618 5.90687 7.35932 6.02244 7.16349 6.2225L6.38282 6.9997C6.10397 7.27136 5.93413 7.63489 5.90509 8.02222C5.87689 8.59086 5.97587 9.15864 6.19488 9.68456C6.59983 10.7386 7.18696 11.7139 7.9297 12.5663ZM6.41436 8.0654C6.4345 7.79742 6.55255 7.54606 6.74621 7.35886L7.52294 6.58624C7.62288 6.47987 7.76056 6.4165 7.9067 6.40961C7.97832 6.41302 8.04852 6.43076 8.11311 6.46178C8.17769 6.49281 8.23533 6.53647 8.28258 6.59017C8.42254 6.72101 8.55397 6.85185 8.69591 6.99774C8.76688 7.07036 8.83982 7.14297 8.91276 7.21821L9.5344 7.83708C9.59149 7.88562 9.63832 7.94497 9.67216 8.01168C9.706 8.07839 9.72619 8.15114 9.73154 8.22568C9.72619 8.30023 9.706 8.37297 9.67216 8.43968C9.63832 8.5064 9.59149 8.56574 9.5344 8.61428C9.46869 8.6797 9.40298 8.74512 9.33727 8.81054C9.14013 9.0068 8.96139 9.19064 8.76097 9.36727L8.75045 9.37774C8.68687 9.43415 8.64261 9.50895 8.62388 9.59166C8.60514 9.67437 8.61286 9.76084 8.64597 9.83895C8.64597 9.8455 8.64991 9.84942 8.65254 9.85531C8.83971 10.2836 9.08755 10.683 9.38852 11.0414C9.95442 11.7551 10.6342 12.3715 11.4006 12.866C11.4897 12.9207 11.5816 12.9707 11.676 13.0158C11.7545 13.0535 11.831 13.0953 11.9053 13.1407L11.9283 13.1532C11.9906 13.1865 12.06 13.2042 12.1307 13.2048C12.1893 13.203 12.247 13.1895 12.3004 13.1652C12.3537 13.141 12.4017 13.1064 12.4415 13.0635L13.2229 12.2857C13.2711 12.2313 13.3297 12.1869 13.3952 12.1551C13.4607 12.1234 13.5319 12.1048 13.6046 12.1005C13.6756 12.105 13.7449 12.1236 13.8084 12.1554C13.8718 12.1873 13.9282 12.2316 13.974 12.2857L15.2324 13.5365C15.2914 13.5839 15.3388 13.644 15.3712 13.7123C15.4036 13.7805 15.4202 13.8551 15.4195 13.9306C15.4189 14.0061 15.4011 14.0805 15.3676 14.1482C15.334 14.2159 15.2856 14.2751 15.2258 14.3216C15.1384 14.4151 15.0464 14.5041 14.9485 14.5976C14.7952 14.7402 14.6496 14.8907 14.5121 15.0484C14.3999 15.173 14.2614 15.2714 14.1066 15.3368C13.9518 15.4021 13.7845 15.4328 13.6165 15.4265C13.581 15.4265 13.5435 15.4265 13.5081 15.4226C12.8798 15.3581 12.2694 15.1764 11.7088 14.8868C10.4048 14.2572 9.25132 13.3569 8.32595 12.2464C7.62178 11.4373 7.06393 10.5128 6.67721 9.51381C6.48288 9.05637 6.39309 8.56163 6.41436 8.0654Z" fill="white" stroke="white" stroke-width="0.2"/>
</svg>
