<svg width="130" height="130" viewBox="0 0 130 130" fill="none" xmlns="http://www.w3.org/2000/svg">
    <circle cx="65" cy="65" r="62" fill="#FEFEFE" stroke="#25BDBE" stroke-width="5"/>
    <path d="M93.7371 86.1335L90.9114 85.154C92.4933 83.903 93.5107 81.9705 93.5107 79.804V77.7361C93.5107 73.9736 90.4446 70.9122 86.6763 70.9122C82.908 70.9122 79.842 73.9736 79.842 77.7361V79.804C79.842 81.9705 80.8599 83.903 82.4418 85.154L79.6156 86.1335C77.803 86.7622 76.2793 87.9151 75.1882 89.3852H67.5544V86.3772C67.5544 82.4179 65.0374 78.8852 61.2915 77.5868L58.4653 76.6072C60.0471 75.3562 61.0651 73.4238 61.0651 71.2572V69.1893C61.0651 65.4263 57.999 62.3655 54.2307 62.3655C50.4624 62.3655 47.3964 65.4268 47.3964 69.1893V71.2572C47.3964 73.4238 48.4143 75.3562 49.9957 76.6072L47.17 77.5868C43.4241 78.8852 40.9071 82.4179 40.9071 86.3772V89.3852H31.0355C30.4636 89.3852 30 89.8481 30 90.4192V98.9659C30 99.537 30.4636 99.9999 31.0355 99.9999H74.1126C74.1591 99.9999 74.205 99.9956 74.2504 99.9898C74.2958 99.9956 74.3417 99.9999 74.3887 99.9999H98.9645C99.5364 99.9999 100 99.537 100 98.9659V94.924C100 90.9652 97.4835 87.4325 93.7371 86.1335ZM81.9131 77.7361C81.9131 75.1136 84.0498 72.9801 86.6763 72.9801C89.3028 72.9801 91.4396 75.1136 91.4396 77.7361V79.804C91.4396 82.4265 89.3028 84.56 86.6763 84.56C84.0498 84.56 81.9131 82.4265 81.9131 79.804V77.7361ZM49.4675 69.1893C49.4675 66.5669 51.6042 64.4334 54.2307 64.4334C56.8572 64.4334 58.994 66.5669 58.994 69.1893V71.2572C58.994 73.8797 56.8572 76.0132 54.2307 76.0132C51.6042 76.0132 49.4675 73.8797 49.4675 71.2572V69.1893ZM56.4033 78.0811L57.4094 78.4298L54.2307 83.9366L51.052 78.4298L52.0582 78.0811H56.4033ZM42.9781 86.3772C42.9781 83.2978 44.936 80.55 47.8493 79.54L49.0605 79.1204L53.3335 86.5239C53.5183 86.8443 53.8606 87.0416 54.2307 87.0416C54.6008 87.0416 54.9432 86.8443 55.1279 86.5239L59.4009 79.1204L60.6122 79.54C63.5255 80.55 65.4828 83.2978 65.4828 86.3772V89.3852H42.9781V86.3772ZM32.0711 91.4531H74.0277C73.5909 92.5351 73.3532 93.7093 73.3532 94.924V97.932H32.0711V91.4531ZM97.9289 97.932H75.4243V94.924C75.4243 91.8445 77.3816 89.0973 80.2949 88.0868L84.5038 86.6279H88.8489L93.0578 88.0868C95.9716 89.0973 97.9289 91.8445 97.9289 94.924V97.932Z" fill="#1A1061"/>
    <path d="M93.4418 37.3777H82.923C82.351 37.3777 81.8874 37.8369 81.8874 38.4024C81.8874 38.9684 82.351 39.4271 82.923 39.4271H93.4418C95.9161 39.4271 97.9289 41.419 97.9289 43.868V58.0768C97.9289 60.5253 95.9161 62.5172 93.4418 62.5172H79.2209C78.6489 62.5172 78.1853 62.9759 78.1853 63.5419V67.8998L73.0499 62.8174C72.8555 62.625 72.5922 62.5172 72.3177 62.5172H63.8956C61.4213 62.5172 59.4079 60.5253 59.4079 58.0768V43.8675C59.4079 41.419 61.4207 39.4271 63.8956 39.4271H78.0817C78.6537 39.4271 79.1173 38.9684 79.1173 38.4024C79.1173 37.8364 78.6537 37.3777 78.0817 37.3777H72.6627V36.4898C72.6627 32.9114 69.7205 30 66.1044 30H36.5582C32.9421 30 30 32.9114 30 36.4898V38.7554C30 39.3214 30.4636 39.7802 31.0355 39.7802C31.6075 39.7802 32.0711 39.3214 32.0711 38.7554V36.4898C32.0711 34.0413 34.0839 32.0495 36.5582 32.0495H66.1044C68.5787 32.0495 70.5916 34.0413 70.5916 36.4898V37.3777H63.8956C60.2795 37.3777 57.3373 40.2891 57.3373 43.8675V55.139H46.4992C45.9272 55.139 45.4636 55.5977 45.4636 56.1637V60.5216L40.3281 55.4392C40.1337 55.2468 39.8705 55.139 39.5959 55.139H36.5582C34.0839 55.139 32.0711 53.1471 32.0711 50.6987V43.5202C32.0711 42.9542 31.6075 42.4955 31.0355 42.4955C30.4636 42.4955 30 42.9542 30 43.5202V50.6987C30 54.2776 32.9421 57.1885 36.5582 57.1885H39.1666L45.767 63.72C45.9651 63.9161 46.23 64.0202 46.4992 64.0197C46.6327 64.0197 46.7673 63.9943 46.8954 63.942C47.2821 63.7834 47.5347 63.4098 47.5347 62.9955V57.1885H57.3373V58.0768C57.3373 61.6552 60.2795 64.5661 63.8956 64.5661H71.8888L78.4887 71.0977C78.6868 71.2937 78.9517 71.3979 79.2209 71.3979C79.3544 71.3979 79.489 71.3725 79.6172 71.3196C80.0038 71.1611 80.2564 70.7874 80.2564 70.3731V64.5661H93.4418C97.0579 64.5661 100 61.6552 100 58.0768V43.8675C100 40.2891 97.0579 37.3777 93.4418 37.3777Z" fill="#25BDBE"/>
</svg>
