<svg width="31" height="30" viewBox="0 0 31 30" fill="none" xmlns="http://www.w3.org/2000/svg">
<path d="M29.3547 23.1473L24.8758 18.8123C24.4301 18.3994 23.8336 18.174 23.2166 18.1851C22.5996 18.1962 22.0123 18.4431 21.5827 18.8717L19.3247 21.0545L18.8779 20.8222C16.8819 19.8236 15.0521 18.5408 13.4496 17.0167C11.875 15.4625 10.5492 13.6893 9.51619 11.756C9.43242 11.6102 9.35237 11.4697 9.27419 11.3346L10.7895 9.87221L11.5341 9.15181C11.9779 8.7362 12.2334 8.16734 12.2446 7.56984C12.2558 6.97235 12.0217 6.39493 11.5937 5.96407L7.11293 1.62909C6.66765 1.21533 6.07098 0.989252 5.45369 1.00039C4.83641 1.01153 4.24887 1.25899 3.81985 1.68852L2.55772 2.91679L2.59309 2.94921C2.16049 3.48949 1.81122 4.08765 1.55621 4.72498C1.32378 5.30399 1.16803 5.90913 1.09268 6.52597C0.496989 11.277 2.73829 15.5993 8.81625 21.4904C17.223 29.6236 23.9972 29.0077 24.2894 28.9789C24.9273 28.9047 25.5529 28.7521 26.151 28.525C26.8072 28.2786 27.4229 27.9413 27.979 27.5237L28.0069 27.5471L29.2858 26.335C29.73 25.9202 29.9866 25.3521 29.9995 24.7549C30.0124 24.1577 29.7806 23.5798 29.3547 23.1473Z" fill="#25BDBE" stroke="#25BDBE"/>
</svg>
