<svg width="56" height="56" viewBox="0 0 56 56" fill="none" xmlns="http://www.w3.org/2000/svg">
    <circle cx="28" cy="28" r="28" fill="#1B1464"/>
    <path d="M40.3992 35.0127L36.2292 31.2913C35.8142 30.9369 35.2589 30.7433 34.6844 30.7528C34.11 30.7624 33.5631 30.9743 33.1632 31.3423L31.0609 33.2162L30.645 33.0167C28.7866 32.1594 27.083 31.0582 25.591 29.7498C24.125 28.4156 22.8906 26.8934 21.9289 25.2337C21.8509 25.1085 21.7763 24.9879 21.7036 24.8719L23.1144 23.6165L23.8076 22.9981C24.2208 22.6413 24.4587 22.1529 24.4691 21.64C24.4795 21.1271 24.2616 20.6314 23.8631 20.2615L19.6913 16.5401C19.2768 16.1849 18.7213 15.9908 18.1465 16.0003C17.5718 16.0099 17.0248 16.2223 16.6254 16.5911L15.4503 17.6455L15.4832 17.6733C15.0805 18.1371 14.7553 18.6506 14.5179 19.1978C14.3014 19.6948 14.1564 20.2143 14.0863 20.7439C13.5317 24.8225 15.6184 28.5331 21.2772 33.5903C29.1042 40.5725 35.4112 40.0437 35.6833 40.019C36.2772 39.9552 36.8596 39.8243 37.4164 39.6294C38.0274 39.4178 38.6007 39.1282 39.1184 38.7697L39.1444 38.7898L40.3351 37.7493C40.7487 37.3931 40.9875 36.9055 40.9995 36.3928C41.0115 35.8801 40.7957 35.384 40.3992 35.0127Z" fill="white" stroke="white"/>
</svg>
