<svg width="130" height="130" viewBox="0 0 130 130" fill="none" xmlns="http://www.w3.org/2000/svg">
    <circle cx="65" cy="65" r="62" fill="#FEFEFE" stroke="#25BDBE" stroke-width="5"/>
    <path d="M104.739 32H61.8589C61.5939 32.0002 61.3351 32.0789 61.1149 32.2262C60.8946 32.3735 60.7226 32.5827 60.6213 32.8276C60.52 33.0724 60.4939 33.3418 60.5456 33.6016C60.5974 33.8615 60.7247 34.1003 60.912 34.2876L72.0249 45.4001L59.1786 58.246L52.0865 51.1535C51.8352 50.9024 51.4943 50.7614 51.1391 50.7614C50.7839 50.7614 50.4435 50.9024 50.1923 51.1535L23.3921 77.9536C23.1411 78.2049 23 78.5455 23 78.9007C23 79.2559 23.1411 79.5965 23.3921 79.8478L42.1523 98.6079C42.4036 98.8589 42.744 99 43.0992 99C43.4544 99 43.7948 98.8589 44.046 98.6079L57.8387 84.8154L64.9322 91.9079C65.1835 92.1589 65.5239 92.3 65.8791 92.3C66.2343 92.3 66.5752 92.1589 66.8264 91.9079L92.6788 66.0553L103.793 77.1678C103.98 77.3548 104.218 77.4822 104.478 77.5337C104.738 77.5852 105.007 77.5587 105.252 77.4573C105.497 77.3559 105.706 77.1843 105.853 76.9641C106 76.7439 106.079 76.485 106.079 76.2202V33.34C106.079 32.9846 105.938 32.6438 105.687 32.3925C105.435 32.1412 105.094 32 104.739 32ZM43.0987 95.7661L26.2336 78.9002L51.1387 53.9952L53.2647 56.1201L47.512 61.8735L49.4062 63.7677L55.1589 58.0152L63.9844 66.8402L58.2322 72.5936L60.1264 74.4878L65.8786 68.7353L68.0046 70.8602L43.0987 95.7661ZM67.7177 74.9367L65.0566 88.241L59.7338 82.9184L67.7177 74.9367ZM103.399 72.986L93.6266 63.2135C93.3753 62.9625 93.0344 62.8215 92.6792 62.8215C92.3241 62.8215 91.9836 62.9625 91.7324 63.2135L68.0612 86.8847L71.2121 71.1244L71.1883 71.1196C71.2359 70.906 71.2292 70.6839 71.1696 70.4733C71.1099 70.2628 70.9988 70.0704 70.8462 69.9135L61.0737 60.1402L74.8664 46.3476C75.1174 46.0964 75.2585 45.7557 75.2585 45.4005C75.2585 45.0454 75.1174 44.7047 74.8664 44.4534L65.0939 34.6799H103.399V72.986Z" fill="#1A1061"/>
    <path d="M55.4361 73.2637L54.0957 71.9237C53.3109 71.1403 52.2476 70.7004 51.1387 70.7004C50.0299 70.7004 48.9665 71.1403 48.1817 71.9237C47.8998 72.2055 47.5176 72.3638 47.119 72.3638C46.7203 72.3638 46.3377 72.2055 46.0557 71.9237L44.7158 70.5837C44.4457 70.2994 44.2977 69.9209 44.3027 69.5288C44.3077 69.1368 44.4657 68.762 44.7429 68.4848C45.0202 68.2075 45.3944 68.0495 45.7865 68.0445C46.1786 68.0395 46.5575 68.1878 46.8418 68.4579L47.5116 69.1279L49.4058 67.2337L48.736 66.5637C48.1179 65.9492 47.3228 65.5437 46.4623 65.4043C45.6019 65.2649 44.7192 65.3986 43.9386 65.7865L42.7057 64.5537L40.8115 66.4479L42.0444 67.6807C41.6565 68.4613 41.5227 69.3437 41.6621 70.2042C41.8015 71.0646 42.2071 71.8597 42.8216 72.4779L44.1615 73.8179C44.9464 74.6011 46.0102 75.0409 47.119 75.0409C48.2277 75.0409 49.2911 74.6011 50.0759 73.8179C50.3579 73.5361 50.7401 73.3779 51.1387 73.3779C51.5373 73.3779 51.92 73.5361 52.202 73.8179L53.5419 75.1579C53.6874 75.2962 53.8036 75.4622 53.884 75.6461C53.9643 75.83 54.0071 76.0282 54.0097 76.2289C54.0123 76.4296 53.9745 76.6287 53.8989 76.8146C53.8233 77.0005 53.7114 77.1695 53.5694 77.3114C53.4275 77.4533 53.2586 77.5654 53.0726 77.641C52.8867 77.7166 52.6873 77.7542 52.4866 77.7516C52.2859 77.7491 52.0882 77.7064 51.9042 77.626C51.7203 77.5457 51.5541 77.4292 51.4159 77.2837L50.7457 76.6138L48.8519 78.508L49.5217 79.1779C50.1362 79.7982 50.9316 80.2078 51.7935 80.3478C52.6554 80.4878 53.5398 80.3511 54.3191 79.9571L55.552 81.1899L57.4457 79.2947L56.2152 78.0629C56.6023 77.2817 56.7353 76.399 56.5956 75.5384C56.4559 74.6778 56.0505 73.8824 55.4361 73.2637Z" fill="#25BDBE"/>
    <path d="M45.6528 85.1718C44.8749 84.7272 43.9946 84.4934 43.0987 84.4934C42.2027 84.4934 41.3224 84.7272 40.5445 85.1718L36.8291 81.4561C37.2735 80.6783 37.5072 79.7979 37.5072 78.902C37.5072 78.0061 37.2735 77.1258 36.8291 76.3479L40.0276 73.15L38.1325 71.2549L34.1123 75.2749C33.9879 75.3993 33.8894 75.547 33.8221 75.7096C33.7547 75.8722 33.7197 76.0466 33.7197 76.2225C33.7197 76.3985 33.7547 76.5728 33.8221 76.7353C33.8894 76.8979 33.9879 77.0457 34.1123 77.1701C34.571 77.63 34.8288 78.2529 34.8288 78.9025C34.8288 79.552 34.571 80.1751 34.1123 80.635C33.9879 80.7594 33.8894 80.9071 33.8221 81.0697C33.7547 81.2323 33.7197 81.4066 33.7197 81.5825C33.7197 81.7585 33.7547 81.9328 33.8221 82.0954C33.8894 82.2579 33.9879 82.4057 34.1123 82.5301L39.4724 87.8901C39.5969 88.0146 39.7445 88.1132 39.9071 88.1806C40.0697 88.2479 40.2442 88.2827 40.4202 88.2827C40.5962 88.2827 40.7703 88.2479 40.9329 88.1806C41.0955 88.1132 41.2431 88.0146 41.3676 87.8901C41.8272 87.4309 42.4504 87.1731 43.1001 87.1731C43.7497 87.1731 44.3729 87.4309 44.8325 87.8901C45.0838 88.1409 45.424 88.2816 45.7789 88.2816C46.1339 88.2816 46.4746 88.1409 46.7258 87.8901L50.7456 83.8701L48.8518 81.9759L45.6528 85.1718Z" fill="#25BDBE"/>
    <path d="M66.2637 59.1951L68.9439 56.5146L70.8393 58.4101L68.1591 61.0905L66.2637 59.1951Z" fill="#25BDBE"/>
    <path d="M71.6235 53.835L87.7039 37.7549L89.599 39.65L73.5191 55.7301L71.6235 53.835Z" fill="#25BDBE"/>
</svg>
