<svg width="130" height="130" viewBox="0 0 130 130" fill="none" xmlns="http://www.w3.org/2000/svg">
    <circle cx="65" cy="65" r="62" fill="#FEFEFE" stroke="#25BDBE" stroke-width="5"/>
    <path d="M104.69 68.9635L92.2495 50.3036C92.1442 50.1452 92.0014 50.0153 91.8338 49.9254C91.6662 49.8356 91.4789 49.7886 91.2887 49.7886C91.0985 49.7886 90.9116 49.8356 90.744 49.9254C90.5764 50.0153 90.4337 50.1452 90.3284 50.3036L77.8875 68.9635C77.7715 69.1374 77.7047 69.3396 77.6946 69.5484C77.6845 69.7572 77.7309 69.9647 77.8295 70.149C77.9281 70.3333 78.0753 70.4873 78.2547 70.5947C78.434 70.7021 78.6388 70.7588 78.8478 70.7587H83.9146V79.2747C82.2961 77.0451 79.961 75.4385 77.3002 74.7237L71.1395 73.0722V69.7925C72.6222 68.9102 73.8564 67.6654 74.7258 66.1751C75.5952 64.6848 76.0716 62.9979 76.1099 61.2729H77.4487C78.3411 61.2728 79.202 60.9451 79.8687 60.352C80.5355 59.759 80.9613 58.9418 81.0654 58.0555C81.1695 57.1693 80.9445 56.2757 80.4333 55.5443C79.9222 54.8129 79.1607 54.2945 78.2927 54.0877V50.9443C78.2925 49.0095 77.8427 47.1013 76.9792 45.3699C76.1158 43.6385 74.8621 42.1312 73.3169 40.967V39.9694H78.3814C78.5905 39.9694 78.7957 39.9127 78.975 39.8053C79.1543 39.698 79.3011 39.5439 79.3997 39.3596C79.4983 39.1753 79.5452 38.9677 79.5351 38.7589C79.5249 38.5501 79.4582 38.348 79.3422 38.1742L66.9022 19.5141C66.7967 19.3559 66.6536 19.2263 66.4861 19.1366C66.3185 19.0469 66.1315 19 65.9414 19C65.7513 19 65.5643 19.0469 65.3967 19.1366C65.2291 19.2263 65.0861 19.3559 64.9806 19.5141L60.6133 26.0643C60.4435 26.3191 60.3821 26.6309 60.4422 26.9311C60.5023 27.2313 60.6791 27.4953 60.9339 27.6651C61.1886 27.835 61.5002 27.8966 61.8005 27.8365C62.1007 27.7764 62.365 27.5996 62.5348 27.3448L65.9414 22.2356L76.2245 37.6605H72.1623C72.0106 37.6604 71.8602 37.6902 71.72 37.7482C71.5797 37.8062 71.4524 37.8913 71.3451 37.9986C71.2378 38.1059 71.1527 38.2334 71.0947 38.3736C71.0367 38.5138 71.0068 38.6641 71.0069 38.8158V39.5854C69.4219 38.8542 67.7012 38.464 65.9559 38.4397C64.2106 38.4154 62.4797 38.7577 60.875 39.4445V38.8158C60.875 38.5097 60.7533 38.216 60.5368 37.9995C60.3203 37.783 60.0266 37.6614 59.7205 37.6614H55.6583L59.5462 31.829C59.6303 31.7028 59.6888 31.5614 59.7182 31.4126C59.7477 31.2639 59.7475 31.1107 59.7178 30.962C59.6881 30.8133 59.6296 30.672 59.5453 30.5459C59.4609 30.4199 59.3527 30.3118 59.2265 30.2277C59.1004 30.1435 58.9587 30.085 58.81 30.0555C58.6612 30.026 58.5082 30.0262 58.3595 30.0559C58.2108 30.0857 58.0694 30.1443 57.9434 30.2287C57.8174 30.313 57.7092 30.4214 57.6251 30.5475L52.5397 38.1751C52.424 38.349 52.3577 38.551 52.3477 38.7597C52.3378 38.9683 52.3845 39.1759 52.4831 39.36C52.5817 39.5442 52.7287 39.6982 52.9078 39.8057C53.0869 39.9131 53.2916 39.97 53.5005 39.9703H58.565V40.7427C56.9326 41.8962 55.6009 43.4245 54.6813 45.1993C53.7616 46.9741 53.281 48.9435 53.28 50.9424V54.1748C52.4603 54.4491 51.7646 55.006 51.3177 55.7459C50.8708 56.4858 50.7017 57.3605 50.8405 58.2136C50.9793 59.0668 51.4173 59.8429 52.0756 60.403C52.734 60.9631 53.5697 61.2708 54.434 61.2711H55.7733C55.8116 62.9962 56.2878 64.6832 57.1574 66.1735C58.027 67.6639 59.2612 68.9086 60.7442 69.7907V73.0713L54.5826 74.7228C51.922 75.437 49.5876 77.0432 47.9695 79.2728V70.7569H53.035C53.244 70.757 53.4493 70.7003 53.6286 70.5929C53.8079 70.4855 53.9547 70.3314 54.0533 70.1472C54.1519 69.9629 54.1988 69.7552 54.1887 69.5465C54.1785 69.3377 54.1118 69.1356 53.9958 68.9617L41.5548 50.3017C41.4494 50.1435 41.3063 50.0139 41.1387 49.9242C40.9712 49.8345 40.7842 49.7874 40.5941 49.7874C40.404 49.7874 40.217 49.8345 40.0494 49.9242C39.8818 50.0139 39.7387 50.1435 39.6333 50.3017L27.1933 68.9617C27.0776 69.1357 27.0113 69.3377 27.0013 69.5463C26.9913 69.755 27.0381 69.9625 27.1367 70.1467C27.2353 70.3309 27.3818 70.4849 27.5609 70.5923C27.7401 70.6998 27.9452 70.7567 28.154 70.7569H33.2204V84.6064C33.2204 84.9126 33.3421 85.2061 33.5586 85.4226C33.7751 85.6391 34.0688 85.7608 34.375 85.7608C34.6811 85.7608 34.9748 85.6391 35.1913 85.4226C35.4078 85.2061 35.5295 84.9126 35.5295 84.6064V69.6006C35.5295 69.2944 35.4078 69.0008 35.1913 68.7844C34.9748 68.5679 34.6811 68.4461 34.375 68.4461H30.3119L40.5941 53.0213L50.8781 68.4461H46.815C46.5088 68.4461 46.2152 68.5679 45.9987 68.7844C45.7822 69.0008 45.6605 69.2944 45.6605 69.6006V95.5034H35.5295V90.0001C35.5295 89.6939 35.4078 89.4004 35.1913 89.1839C34.9748 88.9674 34.6811 88.8457 34.375 88.8457C34.0688 88.8457 33.7751 88.9674 33.5586 89.1839C33.3421 89.4004 33.2204 89.6939 33.2204 90.0001V96.6652C33.2204 96.9714 33.3421 97.265 33.5586 97.4815C33.7751 97.698 34.0688 97.8197 34.375 97.8197H97.5078C97.6595 97.8199 97.81 97.7901 97.9502 97.7321C98.0903 97.6742 98.2178 97.5891 98.3251 97.4819C98.4324 97.3746 98.5174 97.2473 98.5754 97.1072C98.6335 96.9671 98.6633 96.8169 98.6633 96.6652V83.3888C98.6547 83.0882 98.5294 82.8027 98.3137 82.5931C98.0981 82.3834 97.809 82.2662 97.5083 82.2662C97.2075 82.2662 96.9189 82.3834 96.7033 82.5931C96.4876 82.8027 96.3618 83.0882 96.3533 83.3888V95.5071H86.2232V69.6006C86.2232 69.2944 86.1015 69.0008 85.885 68.7844C85.6685 68.5679 85.3749 68.4461 85.0687 68.4461H81.0056L91.2887 53.0213L101.572 68.4461H97.5078C97.2017 68.4461 96.908 68.5679 96.6915 68.7844C96.475 69.0008 96.3533 69.2944 96.3533 69.6006V77.9978C96.3618 78.2984 96.4876 78.5839 96.7033 78.7935C96.9189 79.0031 97.2075 79.1204 97.5083 79.1204C97.809 79.1204 98.0981 79.0031 98.3137 78.7935C98.5294 78.5839 98.6547 78.2984 98.6633 77.9978V70.755H103.729C103.938 70.7551 104.143 70.6984 104.322 70.591C104.502 70.4836 104.648 70.3295 104.747 70.1452C104.846 69.9609 104.893 69.7534 104.882 69.5446C104.872 69.3359 104.806 69.1338 104.69 68.9599V68.9635ZM63.4915 78.5402L62.3732 79.4721C62.1222 79.6814 61.8231 79.8246 61.5025 79.8883C61.1819 79.952 60.8501 79.9343 60.5382 79.8368C60.2262 79.7393 59.9437 79.5651 59.7164 79.3301C59.4891 79.0952 59.3245 78.807 59.2374 78.492L58.5605 76.0488L60.9511 75.408C61.1454 76.0726 61.4702 76.6919 61.9064 77.2297C62.3426 77.7675 62.8813 78.2129 63.4915 78.5402ZM70.9322 75.408L73.3232 76.0488L72.6463 78.4911C72.5594 78.8063 72.395 79.0948 72.1678 79.3299C71.9405 79.5651 71.6577 79.7395 71.3455 79.8371C71.0334 79.9347 70.7019 79.9525 70.3812 79.8887C70.0604 79.825 69.7607 79.6817 69.5096 79.4721L68.3922 78.5402C69.0021 78.2126 69.5408 77.7671 69.9768 77.2293C70.4129 76.6916 70.7377 76.0724 70.9322 75.408ZM78.7821 57.6307C78.7816 57.9842 78.6409 58.3231 78.3909 58.573C78.141 58.823 77.8022 58.9636 77.4487 58.9641H76.1154V56.2973H77.4487C77.8022 56.2978 78.141 56.4385 78.3909 56.6884C78.6409 56.9384 78.7816 57.2772 78.7821 57.6307ZM55.5886 50.9443C55.5886 48.2391 56.6635 45.6448 58.5764 43.732C60.4892 41.8192 63.0832 40.7445 65.7884 40.7445C68.4935 40.7445 71.088 41.8192 73.0008 43.732C74.9137 45.6448 75.9881 48.2391 75.9881 50.9443V53.9876H72.1659C71.6475 53.9873 71.1508 53.7813 70.7841 53.4148C70.4175 53.0484 70.211 52.5513 70.2105 52.0329C70.2105 51.8813 70.1807 51.7312 70.1226 51.5911C70.0646 51.4511 69.9795 51.3238 69.8723 51.2166C69.7651 51.1094 69.6379 51.0243 69.4978 50.9663C69.3578 50.9083 69.2075 50.8785 69.0559 50.8785C68.9043 50.8785 68.7546 50.9083 68.6145 50.9663C68.4744 51.0243 68.3468 51.1094 68.2396 51.2166C68.1324 51.3238 68.0477 51.4511 67.9897 51.5911C67.9317 51.7312 67.9018 51.8813 67.9018 52.0329C67.9014 52.5513 67.6949 53.0484 67.3282 53.4148C66.9615 53.7813 66.4643 53.9873 65.9459 53.9876H55.5931L55.5886 50.9443ZM53.1007 57.6307C53.1012 57.2772 53.2419 56.9384 53.4919 56.6884C53.7418 56.4385 54.0806 56.2978 54.434 56.2973H55.7679V58.9641H54.434C54.0806 58.9636 53.7418 58.823 53.4919 58.573C53.2419 58.3231 53.1012 57.9842 53.1007 57.6307ZM58.0774 61.0513V56.2973H65.9414C66.3396 55.8713 66.8213 55.5315 67.3563 55.2992C67.8913 55.067 68.4682 54.9472 69.0514 54.9472C69.6346 54.9472 70.2116 55.067 70.7465 55.2992C71.2815 55.5315 71.7632 55.8713 72.1614 56.2973H73.8063V61.0513C73.8063 63.1371 72.978 65.1375 71.5031 66.6123C70.0282 68.0872 68.0276 68.9159 65.9419 68.9159C63.8561 68.9159 61.8559 68.0872 60.3811 66.6123C58.9062 65.1375 58.0774 63.1371 58.0774 61.0513ZM65.9414 71.2252C66.9194 71.2251 67.8925 71.0836 68.83 70.8051V73.9578C68.83 74.3371 68.7551 74.7127 68.61 75.0631C68.4648 75.4135 68.252 75.732 67.9838 76.0002C67.7156 76.2684 67.3975 76.4811 67.047 76.6263C66.6966 76.7714 66.3207 76.8462 65.9414 76.8462C65.5621 76.8462 65.1866 76.7714 64.8362 76.6263C64.4858 76.4811 64.1672 76.2684 63.899 76.0002C63.6308 75.732 63.418 75.4135 63.2728 75.0631C63.1277 74.7127 63.0532 74.3371 63.0532 73.9578V70.8051C63.9907 71.0837 64.9634 71.2252 65.9414 71.2252ZM47.9695 86.3532C47.9718 84.212 48.679 82.131 49.9825 80.4322C51.286 78.7333 53.1129 77.5111 55.1806 76.9546L56.3307 76.6458L57.0121 79.1077C57.2025 79.7945 57.5618 80.4226 58.0575 80.9346C58.5532 81.4467 59.1693 81.8264 59.8495 82.039C60.5297 82.2517 61.2526 82.2905 61.9517 82.152C62.6507 82.0134 63.3038 81.702 63.8515 81.246L65.9414 79.5046L68.0313 81.246C68.7954 81.885 69.7595 82.2355 70.7556 82.2363C71.1889 82.2358 71.6201 82.1697 72.0337 82.0406C72.7149 81.8291 73.3316 81.4495 73.8276 80.937C74.3236 80.4245 74.6825 79.7954 74.8716 79.1077L75.5535 76.6468L76.7021 76.9546C78.77 77.511 80.5971 78.7331 81.9007 80.4319C83.2044 82.1308 83.9123 84.2118 83.9146 86.3532V95.5071H78.759V88.4405C78.759 88.1343 78.6373 87.8408 78.4208 87.6243C78.2043 87.4078 77.9107 87.286 77.6045 87.286C77.2983 87.286 77.0047 87.4078 76.7882 87.6243C76.5717 87.8408 76.45 88.1343 76.45 88.4405V95.5071H55.4292V88.4405C55.4292 88.1342 55.3076 87.8405 55.091 87.6239C54.8744 87.4073 54.5805 87.2856 54.2742 87.2856C53.9679 87.2856 53.6745 87.4073 53.4579 87.6239C53.2413 87.8405 53.1192 88.1342 53.1192 88.4405V95.5071H47.965L47.9695 86.3532Z" fill="#1A1061"/>
</svg>
