<svg width="10" height="9" viewBox="0 0 10 9" fill="none" xmlns="http://www.w3.org/2000/svg">
    <path d="M0 8.18104V1.30264C0 1.03395 0.222904 0.817009 0.498977 0.817009H5.71575C6.09827 0.817009 6.28716 1.2819 6.01303 1.5487L5.76892 1.78627H5.71575H0.99591V7.69541H7.06748V6.63459V5.3959C7.06748 5.26149 7.12182 5.13279 7.21814 5.03905C7.53373 4.7319 8.06339 4.95551 8.06339 5.3959V6.63459V8.18104C8.06339 8.44774 7.84049 8.66667 7.56442 8.66667H0.498977C0.222904 8.66667 0 8.44973 0 8.18104ZM4.33742 4.45922L3.27403 3.42427C2.97546 3.13369 2.4908 3.13369 2.19223 3.42427C2.04703 3.56558 1.96728 3.75267 1.96728 3.9517C1.96728 4.15072 2.04703 4.33781 2.19223 4.47713L3.7955 6.03751C4.09407 6.32809 4.57873 6.32809 4.8773 6.03751L9.77505 1.27079C9.92025 1.12948 10 0.942397 10 0.745359C10 0.546331 9.92025 0.359245 9.77505 0.217935C9.47648 -0.0726452 8.99182 -0.0726452 8.69325 0.217935L4.33742 4.45922Z" fill="#27BCC0"/>
</svg>
