<svg width="18" height="14" viewBox="0 0 18 14" fill="none" xmlns="http://www.w3.org/2000/svg">
    <path d="M17.1807 3.87956C17.1321 3.31508 16.952 2.76981 16.6549 2.28744C16.3577 1.80507 15.9517 1.39899 15.4694 1.10174C14.3536 0.569917 13.1389 0.27705 11.9034 0.241912L11.6656 0.218033C9.26082 -0.0320381 6.83379 0.031142 4.44531 0.40599C3.8909 0.481988 3.34497 0.610639 2.81496 0.790206C2.20902 0.984733 1.66783 1.34132 1.25002 1.82137C0.728039 2.562 0.443756 3.44392 0.434876 4.34997C0.336845 5.33363 0.296273 6.32217 0.313374 7.31055C0.324797 7.70931 0.340361 8.17453 0.378783 8.63145C0.417658 9.68422 0.71394 10.7114 1.24172 11.6232C1.61003 12.1246 2.08664 12.5366 2.63604 12.8285C3.18544 13.1205 3.79354 13.2849 4.41521 13.3096C5.83077 13.5007 7.25612 13.6106 8.68424 13.6388H8.77557C10.2067 13.6261 11.6349 13.5084 13.0487 13.2867C14.1445 13.2132 15.1961 12.8268 16.0789 12.1735C16.8461 11.3418 17.2563 10.2422 17.2212 9.11119C17.4204 7.37215 17.4068 5.61531 17.1807 3.87956ZM16.3292 9.03644C16.3698 9.93607 16.0673 10.8176 15.4829 11.5027C14.7277 12.033 13.84 12.3432 12.9189 12.3989C11.519 12.6163 10.105 12.7305 8.68836 12.7405C7.29427 12.7121 5.90294 12.6043 4.52112 12.4176C4.02903 12.4137 3.54458 12.2956 3.10595 12.0725C2.66731 11.8494 2.28648 11.5274 1.99354 11.132C1.55015 10.3435 1.3033 9.45976 1.27391 8.55563C1.23653 8.12156 1.22202 7.67296 1.2106 7.28563C1.19468 6.33224 1.23422 5.37873 1.32899 4.42993C1.32702 3.70544 1.54022 2.99668 1.94163 2.39356C2.25845 2.0391 2.66543 1.77711 3.11926 1.63549C3.59481 1.47591 4.0843 1.36153 4.58133 1.29385C6.89455 0.930638 9.24513 0.869208 11.5742 1.11109L11.8162 1.13497C12.929 1.1645 14.0242 1.41994 15.0353 1.88576C15.3968 2.12025 15.6989 2.43537 15.9181 2.80637C16.1372 3.17737 16.2672 3.59413 16.298 4.02389C16.5117 5.68725 16.5228 7.37039 16.3312 9.03644H16.3292Z" fill="#545D75"/>
    <path d="M13.6153 3.30517L9.02754 6.92205C8.97537 6.96941 8.90741 6.99565 8.83695 6.99565C8.7665 6.99565 8.6986 6.96941 8.64643 6.92205L4.05865 3.30517C4.01235 3.2687 3.95928 3.24169 3.90254 3.22571C3.84581 3.20973 3.78652 3.20508 3.72799 3.21202C3.66946 3.21896 3.61285 3.23737 3.56143 3.26618C3.51001 3.29499 3.46474 3.33365 3.42826 3.37995C3.39179 3.42625 3.36483 3.47927 3.34885 3.53601C3.33286 3.59274 3.32821 3.65206 3.33516 3.71059C3.3421 3.76912 3.36047 3.82572 3.38928 3.87714C3.4181 3.92856 3.45676 3.97379 3.50305 4.01027L8.09089 7.62715C8.301 7.8007 8.565 7.89564 8.83752 7.89564C9.11004 7.89564 9.37404 7.8007 9.58415 7.62715L14.1719 4.01027C14.2654 3.9366 14.3259 3.8288 14.3399 3.71059C14.3539 3.59238 14.3204 3.47345 14.2467 3.37995C14.173 3.28645 14.0653 3.22604 13.9471 3.21202C13.8288 3.198 13.7099 3.2315 13.6164 3.30517H13.6153Z" fill="#545D75"/>
</svg>
