<svg width="32" height="29" viewBox="0 0 32 29" fill="none" xmlns="http://www.w3.org/2000/svg">
    <path d="M26.749 16.5631C27.0163 16.3858 27.2494 16.2256 27.4939 16.0654C28.5174 17.5184 29.5636 18.9428 29.4499 20.8649C29.1656 20.8649 28.8813 20.8649 28.5458 20.8649C28.6766 19.1373 27.6361 17.9017 26.749 16.5631Z" fill="#22274E"/>
    <path d="M10.5031 17.433C10.759 17.6046 10.9921 17.7648 11.2537 17.9364C10.469 19.0862 10.2017 20.3333 10.4519 21.7062C10.1449 21.7691 9.87194 21.8263 9.57626 21.8892C9.25784 20.2532 9.58764 18.7945 10.5031 17.433Z" fill="#22274E"/>
    <path d="M26.2945 14.2297C26.4992 14.5443 26.6925 14.836 26.8972 15.1392C26.6414 15.3108 26.4082 15.471 26.1467 15.6426C25.942 15.3337 25.743 15.042 25.5439 14.7331C25.7941 14.5672 26.0273 14.407 26.2945 14.2297Z" fill="#22274E"/>
    <path d="M10.7038 22.5468C10.8631 22.8386 11.0109 23.1074 11.1701 23.4049C10.9313 23.5708 10.6925 23.7367 10.4252 23.9255C10.2376 23.5822 10.0613 23.2562 9.8623 22.8958C10.1694 22.7757 10.4309 22.667 10.7038 22.5468Z" fill="#22274E"/>
    <path d="M23.4679 24.1142H15.7519C15.2004 24.1142 14.7568 24.5661 14.7568 25.1153V26.4882C14.7568 27.0431 15.206 27.4893 15.7519 27.4893H23.4679C24.0195 27.4893 24.463 27.0374 24.463 26.4882V25.1153C24.463 24.5661 24.0138 24.1142 23.4679 24.1142ZM23.7807 26.4882C23.7807 26.6598 23.6385 26.8028 23.4679 26.8028H15.7519C15.5813 26.8028 15.4392 26.6598 15.4392 26.4882V25.1153C15.4392 24.9437 15.5813 24.8007 15.7519 24.8007H16.1954V25.5043H16.8778V24.8007H17.7307V25.5043H18.413V24.8007H19.2659V25.5043H19.9482V24.8007H20.8012V25.5043H21.4835V24.8007H22.3364V25.5043H23.0187V24.8007H23.4622C23.6328 24.8007 23.775 24.9437 23.775 25.1153V26.4882H23.7807Z" fill="#E9C503"/>
    <path d="M25.2171 21.425H17.5068C16.9552 21.425 16.5117 21.8769 16.5117 22.4261V23.799C16.5117 24.3539 16.9609 24.8001 17.5068 24.8001H25.2228C25.7744 24.8001 26.2179 24.3482 26.2179 23.799V22.4261C26.2122 21.8769 25.7687 21.425 25.2171 21.425ZM25.5299 23.799C25.5299 23.9706 25.3877 24.1136 25.2171 24.1136H17.5068C17.3362 24.1136 17.1941 23.9706 17.1941 23.799V22.4261C17.1941 22.2545 17.3362 22.1115 17.5068 22.1115H17.9503V22.8151H18.6326V22.1115H19.4855V22.8151H20.1679V22.1115H21.0208V22.8151H21.7031V22.1115H22.556V22.8151H23.2384V22.1115H24.0913V22.8151H24.7736V22.1115H25.2171C25.3877 22.1115 25.5299 22.2545 25.5299 22.4261V23.799Z" fill="#E9C503"/>
    <path d="M23.1019 18.7428H15.3916C14.84 18.7428 14.3965 19.1947 14.3965 19.7439V21.1168C14.3965 21.6717 14.8457 22.1179 15.3916 22.1179H23.1076C23.6591 22.1179 24.1027 21.666 24.1027 21.1168V19.7439C24.097 19.1947 23.6535 18.7428 23.1019 18.7428ZM23.4146 21.1168C23.4146 21.2884 23.2725 21.4314 23.1019 21.4314H15.3916C15.221 21.4314 15.0788 21.2884 15.0788 21.1168V19.7439C15.0788 19.5723 15.221 19.4293 15.3916 19.4293H15.8351V20.1329H16.5174V19.4293H17.3703V20.1329H18.0526V19.4293H18.9056V20.1329H19.5879V19.4293H20.4408V20.1329H21.1231V19.4293H21.9761V20.1329H22.6584V19.4293H23.1019C23.2725 19.4293 23.4146 19.5723 23.4146 19.7439V21.1168Z" fill="#E9C503"/>
    <path d="M24.2601 16.0654H16.5498C15.9982 16.0654 15.5547 16.5173 15.5547 17.0665V18.4394C15.5547 18.9943 16.0039 19.4405 16.5498 19.4405H24.2658C24.8173 19.4405 25.2609 18.9886 25.2609 18.4394V17.0665C25.2609 16.5173 24.8117 16.0654 24.2601 16.0654ZM24.5785 18.4394C24.5785 18.611 24.4364 18.754 24.2658 18.754H16.5498C16.3792 18.754 16.237 18.611 16.237 18.4394V17.0665C16.237 16.8949 16.3792 16.7519 16.5498 16.7519H16.9933V17.4555H17.6756V16.7519H18.5285V17.4555H19.2108V16.7519H20.0638V17.4555H20.7461V16.7519H21.599V17.4555H22.2813V16.7519H23.1343V17.4555H23.8166V16.7519H24.2601C24.4307 16.7519 24.5728 16.8949 24.5728 17.0665V18.4394H24.5785Z" fill="#E9C503"/>
    <path d="M4.19726 27.1857H1.33146C1.21774 27.1857 1.12676 27.0942 1.12676 26.9798V26.0702C1.12676 25.9558 1.21774 25.8643 1.33146 25.8643H1.62714V26.3333H2.07634V25.8643H2.63926V26.3333H3.08847V25.8643H3.65139V26.3333H4.10059V25.8643H4.11765V25.767C4.11765 25.6412 4.14608 25.521 4.20294 25.4124H1.33146C1.21774 25.4124 1.12676 25.3208 1.12676 25.2064V24.2969C1.12676 24.1882 1.20637 24.1024 1.3144 24.0909C1.32009 24.0909 1.33146 24.0909 1.33715 24.0909H1.63283V24.5543H2.08203V24.0909H2.64495V24.5543H3.09415V24.0909H3.65708V24.5543H4.10628V24.0909H4.12334V23.6333H1.33146C1.32578 23.6333 1.3144 23.6333 1.30872 23.6333C1.20637 23.6219 1.12108 23.536 1.12108 23.4274V22.5178C1.12108 22.4206 1.18931 22.3347 1.28029 22.3176C1.29735 22.3176 1.3144 22.3176 1.32578 22.3176H1.62145V22.7752H2.07066V22.3176H2.63358V22.7752H3.08278V22.3176H3.6457V22.7752H4.09491V22.3176H4.11196V21.8542H1.33146C1.3144 21.8542 1.29735 21.8542 1.28597 21.8542C1.195 21.8313 1.12676 21.7513 1.12676 21.654V20.7445C1.12676 20.6301 1.21774 20.5385 1.33146 20.5385H1.62714V21.0076H2.07634V20.5385H2.63926V21.0076H3.08847V20.5385H3.65139V21.0076H4.10059V20.5385H4.11765C4.11765 20.5214 4.11765 20.4985 4.11765 20.4813V20.0866H1.33146C0.967552 20.0866 0.671875 20.3841 0.671875 20.7502V21.6597C0.671875 21.8256 0.734422 21.9744 0.831086 22.0888C0.734422 22.2032 0.671875 22.3576 0.671875 22.5178V23.4274C0.671875 23.5932 0.734422 23.7477 0.836772 23.8621C0.734422 23.9765 0.671875 24.131 0.671875 24.2969V25.2064C0.671875 25.3723 0.734422 25.5268 0.836772 25.6412C0.734422 25.7556 0.671875 25.91 0.671875 26.0759V26.9855C0.671875 27.3516 0.967552 27.6491 1.33146 27.6491H4.90802C4.59528 27.6433 4.32235 27.4546 4.19726 27.1857Z" fill="#E9C503"/>
    <path d="M11.2597 26.1794V26.8544C11.2597 26.9917 11.1517 27.1061 11.0095 27.1061H4.90836C4.77189 27.1061 4.65817 26.9917 4.65817 26.8544V25.7675C4.65817 25.6302 4.77189 25.5215 4.90836 25.5215H5.2609V26.0821H5.80108V25.5158H6.47772V26.0764H7.0179V25.5158H7.69455V26.0764H8.23473V25.5158H8.91137V26.0764H9.45155V25.5158H10.1282V26.0764H10.6684V25.7274C10.4011 25.4986 10.1509 25.2469 9.9235 24.9781H4.91973C4.78326 24.9781 4.66954 24.8694 4.66954 24.7321V23.6395C4.66954 23.5136 4.76621 23.4107 4.8913 23.3992C4.89699 23.3992 4.90836 23.3992 4.91973 23.3992H5.27227V23.9541H5.81245V23.3992H6.48909V23.9541H7.02927V23.3992H7.70592V23.9541H8.2461V23.3992H8.92275V23.9541H9.22979C9.03647 23.6109 8.87157 23.239 8.74079 22.8501H4.90836C4.90267 22.8501 4.8913 22.8501 4.87993 22.8501C4.82307 22.8443 4.77189 22.8215 4.73209 22.7814H4.66386V22.667C4.65817 22.6498 4.65817 22.627 4.65817 22.6041V21.5172C4.65817 21.4028 4.73778 21.2998 4.84581 21.2769C4.86287 21.2769 4.88561 21.2769 4.90267 21.2769H5.25521V21.8261H5.79539V21.2769H6.47204V21.8261H7.01222V21.2769H7.68886V21.8261H8.22904V21.2769H8.38825C8.37119 21.0882 8.35982 20.9051 8.35982 20.722H4.90836C4.8913 20.722 4.86856 20.722 4.8515 20.722C4.76621 20.6992 4.69229 20.6305 4.66954 20.5447V20.539C4.66386 20.5218 4.66386 20.4989 4.66386 20.4818V19.3949C4.66386 19.2576 4.77758 19.1432 4.91404 19.1432H5.26658V19.7038H5.80676V19.1432H6.48341V19.7038H7.02359V19.1432H7.70023V19.7038H8.24041V19.1432H8.55315C8.6157 18.8972 8.68962 18.657 8.78059 18.4224H4.91404C4.77758 18.4224 4.66386 18.308 4.66386 18.1764V17.0896C4.66386 16.9523 4.77758 16.8379 4.91404 16.8379H5.26658V17.3985H5.80676V16.8379H6.48341V17.3985H7.02359V16.8379H7.70023V17.3985H8.24041V16.8379H8.91706V17.3985H9.45724V16.8379H9.63351C9.75292 16.6548 9.87232 16.4775 9.99173 16.2944H4.90836C4.77189 16.2944 4.65817 16.18 4.65817 16.0484V14.9615C4.65817 14.8243 4.77189 14.7156 4.90836 14.7156H5.2609V15.2762H5.80108V14.7156H6.47772V15.2762H7.0179V14.7156H7.69455V15.2762H8.23473V14.7156H8.91137V15.2762H9.45155V14.7156H10.1282V15.2762H10.6684V14.7156H11.0209C11.0266 14.7156 11.0323 14.7156 11.038 14.7156C11.1403 14.5611 11.2484 14.4009 11.3507 14.2465C11.2484 14.2007 11.1346 14.1721 11.0152 14.1721H4.90836C4.47622 14.1721 4.12368 14.5268 4.12368 14.9615V16.0484C4.12368 16.2486 4.1976 16.4317 4.317 16.569C4.1976 16.7063 4.12368 16.8893 4.12368 17.0896V18.1764C4.12368 18.4224 4.23171 18.6398 4.40798 18.7828C4.23171 18.9258 4.12368 19.1489 4.12368 19.3949V20.4818C4.12368 20.4989 4.12368 20.5218 4.12368 20.539C4.13505 20.7106 4.20328 20.8708 4.31132 20.9966C4.19191 21.1339 4.11799 21.317 4.11799 21.5115V22.5984C4.11799 22.7986 4.19191 22.9759 4.31132 23.1189C4.19191 23.2562 4.11799 23.4335 4.11799 23.6338V24.7264C4.11799 24.9266 4.19191 25.1096 4.31132 25.2469C4.26583 25.2984 4.23171 25.3556 4.1976 25.4128C4.14642 25.5215 4.1123 25.6416 4.1123 25.7675V26.8544C4.1123 26.9745 4.14074 27.0889 4.18622 27.1919C4.31132 27.4607 4.58425 27.6438 4.89699 27.6438H10.9982C11.2142 27.6438 11.4076 27.558 11.5554 27.415C11.6976 27.272 11.7885 27.0718 11.7885 26.8544V26.5054C11.6123 26.4025 11.4303 26.2938 11.2597 26.1794Z" fill="#E9C503"/>
    <path d="M19.4949 3.93236C19.3869 3.56625 19.2845 3.48616 18.9604 3.49188C18.75 3.4976 18.5851 3.60057 18.5738 3.79507C18.5681 3.93808 18.6534 4.14401 18.7614 4.21838C19.0059 4.38999 19.2902 4.51012 19.5631 4.63597C20.0635 4.87051 20.3535 5.26522 20.3649 5.81439C20.3763 6.36927 20.1033 6.7697 19.6143 7.02712C19.5461 7.06717 19.4722 7.17586 19.4665 7.25594C19.4494 7.51336 19.4608 7.77078 19.4608 8.04537C19.1594 8.04537 18.8751 8.04537 18.551 8.04537C18.551 7.78222 18.5567 7.51908 18.5453 7.26166C18.5396 7.1873 18.5055 7.07861 18.4544 7.05573C17.7152 6.71822 17.5844 6.09469 17.6526 5.34531C17.9369 5.34531 18.2212 5.34531 18.551 5.34531C18.551 5.50548 18.5453 5.67138 18.551 5.84299C18.5567 6.07753 18.6818 6.21482 18.9149 6.2377C19.1481 6.2663 19.3641 6.22054 19.4437 5.96312C19.512 5.74002 19.4039 5.57985 19.2049 5.47688C18.9263 5.33387 18.6477 5.19658 18.3691 5.05357C17.8971 4.80759 17.6469 4.40716 17.6469 3.88087C17.6469 3.36603 17.8914 2.9656 18.3577 2.73678C18.5112 2.66242 18.5624 2.57661 18.551 2.41072C18.5396 2.17618 18.5453 1.93592 18.5453 1.6785C18.8467 1.6785 19.1367 1.6785 19.4551 1.6785C19.4551 1.90732 19.4608 2.13041 19.4551 2.35923C19.4494 2.54229 19.4835 2.6567 19.6769 2.75394C20.1431 2.98276 20.3478 3.39463 20.3706 3.93236C20.0692 3.93236 19.7849 3.93236 19.4949 3.93236Z" fill="#E9C503"/>
    <circle cx="18.9702" cy="4.68524" r="3.98092" stroke="#22274E"/>
    <path d="M30.7108 17.8956C30.3867 17.1347 29.9034 16.4369 29.4655 15.7275C29.022 15.0125 28.5387 14.3146 28.0497 13.5823C28.8799 13.4794 29.3973 13.0046 29.4542 12.3181C29.5281 11.4772 28.8912 10.8194 28.0042 10.8194C22.301 10.8194 16.5979 10.8194 10.8947 10.8194C10.8492 10.8194 10.7981 10.8194 10.7526 10.8194C10.0873 10.848 9.52437 11.3685 9.45045 12.0321C9.37653 12.7014 9.7973 13.3306 10.4455 13.508C10.5706 13.5423 10.6957 13.5595 10.8379 13.5881C10.7753 13.6853 10.7298 13.7654 10.6787 13.8455C10.6047 13.9542 10.5308 14.0629 10.4626 14.1773C10.3432 14.3603 10.2238 14.5377 10.1044 14.7207C9.75182 15.247 9.40496 15.7733 9.05811 16.3053C9.01262 16.3739 8.96713 16.4426 8.92165 16.5112C8.84773 16.6199 8.77949 16.7343 8.71126 16.8487C8.40421 17.3636 8.15971 17.8899 7.98344 18.4333C7.90383 18.6736 7.84129 18.9138 7.78443 19.1541C7.6707 19.6689 7.61384 20.1895 7.61953 20.7272C7.61953 20.9103 7.6309 21.0933 7.64227 21.2821C7.6707 21.591 7.71619 21.8999 7.77874 22.2145C7.82423 22.4319 7.8754 22.6436 7.93795 22.8552C8.05167 23.2385 8.18814 23.6046 8.35304 23.9593C8.52362 24.3196 8.71695 24.6629 8.9387 24.9832C9.1434 25.2807 9.36516 25.561 9.60398 25.8241C10.0646 26.3218 10.5877 26.7566 11.162 27.1112C11.3439 27.2256 11.5316 27.3286 11.7249 27.4259C12.7484 27.9407 13.9084 28.221 15.1422 28.221C18.0023 28.221 20.8625 28.2267 23.7282 28.2153C24.1831 28.2153 24.638 28.1752 25.0872 28.1066C29.7385 27.3629 32.5701 22.2431 30.7108 17.8956ZM10.7583 12.6385C10.5251 12.6099 10.3659 12.4211 10.3659 12.1923C10.3659 11.9635 10.5308 11.7747 10.7583 11.7404C10.8435 11.7289 10.9288 11.7346 11.0141 11.7346C16.6547 11.7346 22.2897 11.7346 27.9303 11.7346C28.0042 11.7346 28.0838 11.7289 28.1577 11.7404C28.3909 11.769 28.5501 11.9577 28.5501 12.1866C28.5501 12.4154 28.3852 12.6099 28.1577 12.6385C28.0667 12.6499 27.9701 12.6442 27.8734 12.6442H11.0141C10.9288 12.6442 10.8435 12.6499 10.7583 12.6385ZM25.7582 26.9968C25.0247 27.2199 24.2741 27.2828 23.5179 27.2886C22.2385 27.3 20.9591 27.2886 19.6797 27.2886V27.2943H15.1877C14.0164 27.2943 12.919 27.014 11.9694 26.4991C11.7818 26.4019 11.6055 26.2932 11.4292 26.1731C11.2188 26.0358 11.0198 25.8813 10.8322 25.7212C10.5649 25.4923 10.3147 25.2406 10.0873 24.9718C9.82005 24.6572 9.58692 24.3139 9.38222 23.9478C9.18889 23.6046 9.024 23.2328 8.89322 22.8438C8.77949 22.5005 8.68852 22.1402 8.62028 21.7683C8.59185 21.6024 8.56911 21.4365 8.55774 21.2764C8.54068 21.0876 8.5293 20.9045 8.5293 20.7215C8.52362 20.1838 8.58617 19.6575 8.71695 19.1484C8.77949 18.9024 8.85341 18.6621 8.94439 18.4276C9.07517 18.0786 9.24007 17.7354 9.43908 17.4036C9.49594 17.3064 9.5528 17.2091 9.61535 17.1176C9.62104 17.1061 9.62672 17.0947 9.63241 17.089C9.68358 17.0089 9.73476 16.9288 9.79162 16.8487C9.91103 16.6657 10.0304 16.4883 10.1498 16.3053C10.3773 15.9621 10.6047 15.6188 10.8322 15.2813C10.8322 15.2813 10.8322 15.2813 10.8322 15.2756C10.9573 15.0925 11.0767 14.9038 11.2018 14.7207C11.3041 14.5663 11.4122 14.4061 11.5145 14.2516C11.6282 14.08 11.742 13.9084 11.8557 13.7425C11.9182 13.6567 12.0604 13.5766 12.1684 13.5766C17.03 13.5709 21.886 13.5709 26.7476 13.5766C26.8499 13.5766 26.9864 13.6453 27.0432 13.7254C27.845 14.9267 28.6695 16.1108 29.4257 17.3407C31.649 20.9331 29.7896 25.7841 25.7582 26.9968Z" fill="#22274E"/>
</svg>
