<svg width="25" height="28" viewBox="0 0 25 28" fill="none" xmlns="http://www.w3.org/2000/svg">
    <path d="M20.1035 16.1889C20.3708 16.0141 20.6039 15.8562 20.8484 15.6983C21.8719 17.1305 22.9181 18.5346 22.8044 20.4292C22.5201 20.4292 22.2358 20.4292 21.9003 20.4292C22.0311 18.7263 20.9905 17.5083 20.1035 16.1889Z" fill="#22274E"/>
    <path d="M3.86735 17.0458C4.12323 17.215 4.35636 17.3729 4.61792 17.542C3.83324 18.6754 3.56599 19.9047 3.81618 21.258C3.50913 21.32 3.2362 21.3764 2.94052 21.4384C2.6221 19.8257 2.95189 18.3879 3.86735 17.0458Z" fill="#22274E"/>
    <path d="M19.6461 13.8888C19.8508 14.1989 20.0441 14.4865 20.2488 14.7854C19.9929 14.9545 19.7598 15.1124 19.4982 15.2816C19.2935 14.9771 19.0945 14.6895 18.8955 14.385C19.1457 14.2215 19.3788 14.0636 19.6461 13.8888Z" fill="#22274E"/>
    <path d="M4.06322 22.0867C4.22244 22.3743 4.37028 22.6393 4.52949 22.9325C4.29067 23.0961 4.05185 23.2596 3.7846 23.4457C3.59696 23.1073 3.42069 22.7859 3.22168 22.4307C3.52873 22.3123 3.79029 22.2051 4.06322 22.0867Z" fill="#22274E"/>
    <path d="M16.8156 23.6323H9.09956C8.54801 23.6323 8.10449 24.0777 8.10449 24.619V25.9723C8.10449 26.5193 8.55369 26.9591 9.09956 26.9591H16.8156C17.3671 26.9591 17.8107 26.5137 17.8107 25.9723V24.619C17.8107 24.0777 17.3615 23.6323 16.8156 23.6323ZM17.1283 25.9723C17.1283 26.1415 16.9862 26.2825 16.8156 26.2825H9.09956C8.92898 26.2825 8.78682 26.1415 8.78682 25.9723V24.619C8.78682 24.4499 8.92898 24.3089 9.09956 24.3089H9.54308V25.0025H10.2254V24.3089H11.0783V25.0025H11.7607V24.3089H12.6136V25.0025H13.2959V24.3089H14.1488V25.0025H14.8311V24.3089H15.6841V25.0025H16.3664V24.3089H16.8099C16.9805 24.3089 17.1226 24.4499 17.1226 24.619V25.9723H17.1283Z" fill="#E9C503"/>
    <path d="M18.5677 20.9814H10.8574C10.3058 20.9814 9.8623 21.4269 9.8623 21.9682V23.3215C9.8623 23.8685 10.3115 24.3083 10.8574 24.3083H18.5734C19.125 24.3083 19.5685 23.8628 19.5685 23.3215V21.9682C19.5628 21.4269 19.1193 20.9814 18.5677 20.9814ZM18.8805 23.3215C18.8805 23.4907 18.7383 23.6317 18.5677 23.6317H10.8574C10.6868 23.6317 10.5446 23.4907 10.5446 23.3215V21.9682C10.5446 21.7991 10.6868 21.6581 10.8574 21.6581H11.3009V22.3517H11.9832V21.6581H12.8361V22.3517H13.5185V21.6581H14.3714V22.3517H15.0537V21.6581H15.9066V22.3517H16.589V21.6581H17.4419V22.3517H18.1242V21.6581H18.5677C18.7383 21.6581 18.8805 21.7991 18.8805 21.9682V23.3215Z" fill="#E9C503"/>
    <path d="M12.8562 3.73765C12.7482 3.37677 12.6458 3.29783 12.3217 3.30347C12.1114 3.30911 11.9465 3.41061 11.9351 3.60232C11.9294 3.74329 12.0147 3.94629 12.1227 4.01959C12.3672 4.18875 12.6515 4.30717 12.9245 4.43122C13.4248 4.66241 13.7148 5.05148 13.7262 5.5928C13.7376 6.13976 13.4646 6.53447 12.9756 6.78821C12.9074 6.82768 12.8335 6.93482 12.8278 7.01376C12.8107 7.2675 12.8221 7.52125 12.8221 7.79191C12.5208 7.79191 12.2364 7.79191 11.9123 7.79191C11.9123 7.53252 11.918 7.27314 11.9067 7.0194C11.901 6.94609 11.8669 6.83896 11.8157 6.8164C11.0765 6.48372 10.9457 5.8691 11.0139 5.13042C11.2982 5.13042 11.5825 5.13042 11.9123 5.13042C11.9123 5.28831 11.9067 5.45183 11.9123 5.62099C11.918 5.85218 12.0431 5.98751 12.2763 6.01007C12.5094 6.03826 12.7255 5.99315 12.8051 5.73941C12.8733 5.51949 12.7653 5.36161 12.5662 5.26011C12.2876 5.11914 12.009 4.98381 11.7304 4.84285C11.2584 4.60038 11.0083 4.20567 11.0083 3.68691C11.0083 3.17942 11.2528 2.78471 11.719 2.55916C11.8725 2.48585 11.9237 2.40127 11.9123 2.23775C11.901 2.00656 11.9067 1.76973 11.9067 1.51599C12.208 1.51599 12.498 1.51599 12.8164 1.51599C12.8164 1.74154 12.8221 1.96145 12.8164 2.187C12.8107 2.36744 12.8449 2.48022 13.0382 2.57607C13.5045 2.80162 13.7092 3.20761 13.7319 3.73765C13.4305 3.73765 13.1462 3.73765 12.8562 3.73765Z" fill="#E9C503"/>
    <path d="M16.3095 4.48008C16.3095 6.63657 14.534 8.39699 12.3286 8.39699C10.1232 8.39699 8.34766 6.63657 8.34766 4.48008C8.34766 2.32359 10.1232 0.563171 12.3286 0.563171C14.534 0.563171 16.3095 2.32359 16.3095 4.48008Z" stroke="#22274E"/>
    <path d="M24.0672 17.502C23.7431 16.752 23.2598 16.0641 22.822 15.3649C22.3785 14.66 21.8951 13.9721 21.4061 13.2504C22.2363 13.1489 22.7537 12.6809 22.8106 12.0042C22.8845 11.1753 22.2477 10.5269 21.3606 10.5269C15.6575 10.5269 9.95433 10.5269 4.25117 10.5269C4.20568 10.5269 4.1545 10.5269 4.10902 10.5269C3.44374 10.555 2.88082 11.0682 2.8069 11.7223C2.73298 12.382 3.15375 13.0023 3.80197 13.1771C3.92706 13.2109 4.05215 13.2278 4.19431 13.256C4.13176 13.3519 4.08627 13.4308 4.0351 13.5097C3.96118 13.6169 3.88726 13.724 3.81902 13.8368C3.69962 14.0172 3.58021 14.192 3.4608 14.3725C3.10826 14.8912 2.76141 15.41 2.41456 15.9344C2.36907 16.0021 2.32358 16.0697 2.27809 16.1374C2.20417 16.2445 2.13594 16.3573 2.06771 16.4701C1.76066 16.9776 1.51615 17.4963 1.33989 18.032C1.26028 18.2688 1.19773 18.5057 1.14087 18.7425C1.02715 19.25 0.970288 19.7631 0.975974 20.2931C0.975974 20.4736 0.987346 20.654 0.998719 20.8401C1.02715 21.1446 1.07264 21.4491 1.13519 21.7592C1.18067 21.9735 1.23185 22.1821 1.2944 22.3908C1.40812 22.7686 1.54458 23.1294 1.70948 23.479C1.88006 23.8343 2.07339 24.1726 2.29515 24.4884C2.49985 24.7816 2.72161 25.0579 2.96042 25.3173C3.421 25.8078 3.94412 26.2364 4.51841 26.586C4.70037 26.6988 4.88801 26.8003 5.08134 26.8961C6.10484 27.4036 7.2648 27.6799 8.49868 27.6799C11.3588 27.6799 14.2189 27.6855 17.0847 27.6743C17.5396 27.6743 17.9945 27.6348 18.4437 27.5671C23.0949 26.8341 25.9266 21.7874 24.0672 17.502ZM4.1147 12.32C3.88157 12.2918 3.72236 12.1057 3.72236 11.8802C3.72236 11.6546 3.88726 11.4685 4.1147 11.4347C4.19999 11.4234 4.28528 11.4291 4.37058 11.4291C10.0112 11.4291 15.6461 11.4291 21.2867 11.4291C21.3606 11.4291 21.4402 11.4234 21.5142 11.4347C21.7473 11.4629 21.9065 11.649 21.9065 11.8745C21.9065 12.1001 21.7416 12.2918 21.5142 12.32C21.4232 12.3313 21.3265 12.3256 21.2299 12.3256H4.37058C4.28528 12.3256 4.19999 12.3313 4.1147 12.32ZM19.1146 26.4732C18.3811 26.6931 17.6306 26.7551 16.8743 26.7608C15.5949 26.7721 14.3156 26.7608 13.0362 26.7608V26.7664H8.54417C7.37284 26.7664 6.27542 26.4901 5.32584 25.9826C5.1382 25.8868 4.96193 25.7796 4.78566 25.6612C4.57528 25.5259 4.37626 25.3737 4.18862 25.2158C3.92137 24.9902 3.67119 24.7421 3.44374 24.4771C3.1765 24.167 2.94336 23.8286 2.73866 23.4678C2.54534 23.1294 2.38044 22.7629 2.24966 22.3795C2.13594 22.0412 2.04496 21.6859 1.97673 21.3194C1.9483 21.1559 1.92555 20.9924 1.91418 20.8345C1.89712 20.6484 1.88575 20.468 1.88575 20.2875C1.88006 19.7575 1.94261 19.2387 2.07339 18.7369C2.13594 18.4944 2.20986 18.2576 2.30084 18.0264C2.43162 17.6824 2.59651 17.3441 2.79553 17.017C2.85239 16.9212 2.90925 16.8253 2.9718 16.7351C2.97748 16.7238 2.98317 16.7126 2.98885 16.7069C3.04003 16.628 3.0912 16.549 3.14806 16.4701C3.26747 16.2896 3.38688 16.1148 3.50629 15.9344C3.73373 15.5961 3.96118 15.2578 4.18862 14.9251C4.18862 14.9251 4.18862 14.9251 4.18862 14.9194C4.31371 14.739 4.43312 14.5529 4.55822 14.3725C4.66057 14.2202 4.7686 14.0623 4.87095 13.9101C4.98467 13.7409 5.0984 13.5718 5.21212 13.4083C5.27467 13.3237 5.41682 13.2447 5.52485 13.2447C10.3865 13.2391 15.2424 13.2391 20.104 13.2447C20.2064 13.2447 20.3428 13.3124 20.3997 13.3913C21.2014 14.5755 22.0259 15.7427 22.7822 16.955C25.0054 20.4961 23.1461 25.2778 19.1146 26.4732Z" fill="#22274E"/>
</svg>
