<svg width="25" height="29" viewBox="0 0 25 29" fill="none" xmlns="http://www.w3.org/2000/svg">
    <path d="M19.6211 16.5837C19.8883 16.4064 20.1215 16.2462 20.366 16.0861C21.3895 17.5391 22.4357 18.9635 22.322 20.8855C22.0377 20.8855 21.7534 20.8855 21.4179 20.8855C21.5487 19.1579 20.5081 17.9223 19.6211 16.5837Z" fill="#22274E"/>
    <path d="M3.38103 17.4536C3.6369 17.6252 3.87003 17.7853 4.13159 17.957C3.34691 19.1068 3.07966 20.3538 3.32985 21.7267C3.0228 21.7897 2.74987 21.8469 2.45419 21.9098C2.13577 20.2737 2.46557 18.815 3.38103 17.4536Z" fill="#22274E"/>
    <path d="M19.1656 14.2501C19.3703 14.5647 19.5636 14.8565 19.7683 15.1597C19.5125 15.3313 19.2793 15.4915 19.0178 15.6631C18.8131 15.3542 18.6141 15.0624 18.415 14.7535C18.6652 14.5876 18.8984 14.4275 19.1656 14.2501Z" fill="#22274E"/>
    <path d="M3.57592 22.5676C3.73513 22.8594 3.88297 23.1282 4.04218 23.4257C3.80337 23.5916 3.56455 23.7575 3.2973 23.9463C3.10966 23.603 2.93339 23.277 2.73438 22.9166C3.04143 22.7964 3.30299 22.6878 3.57592 22.5676Z" fill="#22274E"/>
    <path d="M16.3429 24.1348H8.6269C8.07535 24.1348 7.63184 24.5867 7.63184 25.1359V26.5088C7.63184 27.0637 8.08104 27.5099 8.6269 27.5099H16.3429C16.8945 27.5099 17.338 27.058 17.338 26.5088V25.1359C17.338 24.5867 16.8888 24.1348 16.3429 24.1348ZM16.6557 26.5088C16.6557 26.6804 16.5135 26.8234 16.3429 26.8234H8.6269C8.45632 26.8234 8.31417 26.6804 8.31417 26.5088V25.1359C8.31417 24.9643 8.45632 24.8213 8.6269 24.8213H9.07042V25.5249H9.75275V24.8213H10.6057V25.5249H11.288V24.8213H12.1409V25.5249H12.8232V24.8213H13.6762V25.5249H14.3585V24.8213H15.2114V25.5249H15.8937V24.8213H16.3372C16.5078 24.8213 16.65 24.9643 16.65 25.1359V26.5088H16.6557Z" fill="#E9C503"/>
    <path d="M18.0921 21.4456H10.3818C9.83023 21.4456 9.38672 21.8975 9.38672 22.4467V23.8196C9.38672 24.3745 9.83592 24.8207 10.3818 24.8207H18.0978C18.6494 24.8207 19.0929 24.3688 19.0929 23.8196V22.4467C19.0872 21.8975 18.6437 21.4456 18.0921 21.4456ZM18.4049 23.8196C18.4049 23.9912 18.2627 24.1342 18.0921 24.1342H10.3818C10.2112 24.1342 10.0691 23.9912 10.0691 23.8196V22.4467C10.0691 22.2751 10.2112 22.1321 10.3818 22.1321H10.8253V22.8357H11.5076V22.1321H12.3605V22.8357H13.0429V22.1321H13.8958V22.8357H14.5781V22.1321H15.431V22.8357H16.1134V22.1321H16.9663V22.8357H17.6486V22.1321H18.0921C18.2627 22.1321 18.4049 22.2751 18.4049 22.4467V23.8196Z" fill="#E9C503"/>
    <path d="M15.9798 18.7634H8.26948C7.71793 18.7634 7.27441 19.2153 7.27441 19.7644V21.1374C7.27441 21.6922 7.72362 22.1384 8.26948 22.1384H15.9855C16.5371 22.1384 16.9806 21.6865 16.9806 21.1374V19.7644C16.9749 19.2153 16.5314 18.7634 15.9798 18.7634ZM16.2926 21.1374C16.2926 21.309 16.1504 21.452 15.9798 21.452H8.26948C8.0989 21.452 7.95675 21.309 7.95675 21.1374V19.7644C7.95675 19.5928 8.0989 19.4498 8.26948 19.4498H8.713V20.1534H9.39533V19.4498H10.2482V20.1534H10.9306V19.4498H11.7835V20.1534H12.4658V19.4498H13.3187V20.1534H14.0011V19.4498H14.854V20.1534H15.5363V19.4498H15.9798C16.1504 19.4498 16.2926 19.5928 16.2926 19.7644V21.1374Z" fill="#E9C503"/>
    <path d="M17.1351 16.0861H9.42475C8.8732 16.0861 8.42969 16.538 8.42969 17.0871V18.46C8.42969 19.0149 8.87889 19.4611 9.42475 19.4611H17.1408C17.6923 19.4611 18.1359 19.0092 18.1359 18.46V17.0871C18.1359 16.538 17.6867 16.0861 17.1351 16.0861ZM17.4535 18.46C17.4535 18.6317 17.3114 18.7747 17.1408 18.7747H9.42475C9.25417 18.7747 9.11202 18.6317 9.11202 18.46V17.0871C9.11202 16.9155 9.25417 16.7725 9.42475 16.7725H9.86827V17.4761H10.5506V16.7725H11.4035V17.4761H12.0858V16.7725H12.9388V17.4761H13.6211V16.7725H14.474V17.4761H15.1563V16.7725H16.0093V17.4761H16.6916V16.7725H17.1351C17.3057 16.7725 17.4478 16.9155 17.4478 17.0871V18.46H17.4535Z" fill="#E9C503"/>
    <path d="M12.368 3.9529C12.2599 3.58679 12.1576 3.5067 11.8335 3.51242C11.6231 3.51814 11.4582 3.62111 11.4468 3.8156C11.4411 3.95862 11.5264 4.16455 11.6344 4.23892C11.8789 4.41053 12.1633 4.53066 12.4362 4.65651C12.9366 4.89105 13.2266 5.28576 13.2379 5.83493C13.2493 6.38981 12.9764 6.79024 12.4874 7.04766C12.4191 7.08771 12.3452 7.19639 12.3395 7.27648C12.3225 7.5339 12.3338 7.79132 12.3338 8.0659C12.0325 8.0659 11.7482 8.0659 11.4241 8.0659C11.4241 7.80276 11.4297 7.53962 11.4184 7.2822C11.4127 7.20783 11.3786 7.09915 11.3274 7.07626C10.5882 6.73876 10.4574 6.11523 10.5257 5.36585C10.81 5.36585 11.0943 5.36585 11.4241 5.36585C11.4241 5.52602 11.4184 5.69191 11.4241 5.86353C11.4297 6.09807 11.5548 6.23536 11.788 6.25824C12.0211 6.28684 12.2372 6.24108 12.3168 5.98366C12.385 5.76056 12.277 5.60039 12.078 5.49742C11.7993 5.35441 11.5207 5.21712 11.2421 5.07411C10.7702 4.82813 10.52 4.42769 10.52 3.90141C10.52 3.38657 10.7645 2.98614 11.2307 2.75732C11.3843 2.68295 11.4354 2.59715 11.4241 2.43125C11.4127 2.19672 11.4184 1.95646 11.4184 1.69904C11.7197 1.69904 12.0097 1.69904 12.3282 1.69904C12.3282 1.92785 12.3338 2.15095 12.3282 2.37977C12.3225 2.56282 12.3566 2.67723 12.5499 2.77448C13.0162 3.0033 13.2209 3.41517 13.2436 3.9529C12.9423 3.9529 12.6579 3.9529 12.368 3.9529Z" fill="#E9C503"/>
    <circle cx="11.8442" cy="4.70584" r="3.98092" stroke="#22274E"/>
    <path d="M23.5858 17.9164C23.2617 17.1555 22.7784 16.4576 22.3405 15.7483C21.897 15.0332 21.4137 14.3353 20.9247 13.6031C21.7549 13.5002 22.2723 13.0254 22.3292 12.3389C22.4031 11.498 21.7662 10.8401 20.8792 10.8401C15.176 10.8401 9.47288 10.8401 3.76972 10.8401C3.72423 10.8401 3.67306 10.8401 3.62757 10.8401C2.9623 10.8688 2.39937 11.3893 2.32545 12.0529C2.25153 12.7222 2.6723 13.3514 3.32052 13.5288C3.44561 13.5631 3.57071 13.5802 3.71286 13.6089C3.65031 13.7061 3.60483 13.7862 3.55365 13.8663C3.47973 13.975 3.40581 14.0836 3.33758 14.1981C3.21817 14.3811 3.09876 14.5584 2.97935 14.7415C2.62682 15.2678 2.27996 15.7941 1.93311 16.3261C1.88762 16.3947 1.84213 16.4634 1.79665 16.532C1.72273 16.6407 1.65449 16.7551 1.58626 16.8695C1.27921 17.3844 1.03471 17.9106 0.85844 18.4541C0.778834 18.6943 0.716287 18.9346 0.659426 19.1749C0.545704 19.6897 0.488843 20.2103 0.494529 20.748C0.494529 20.931 0.505901 21.1141 0.517273 21.3029C0.545704 21.6118 0.591193 21.9207 0.65374 22.2353C0.699229 22.4527 0.750404 22.6643 0.812951 22.876C0.926673 23.2593 1.06314 23.6254 1.22804 23.98C1.39862 24.3404 1.59195 24.6837 1.8137 25.004C2.0184 25.3015 2.24016 25.5818 2.47898 25.8449C2.93955 26.3426 3.46267 26.7773 4.03697 27.132C4.21892 27.2464 4.40657 27.3494 4.59989 27.4466C5.62339 27.9615 6.78335 28.2418 8.01724 28.2418C10.8773 28.2418 13.7375 28.2475 16.6032 28.2361C17.0581 28.2361 17.513 28.196 17.9622 28.1274C22.6135 27.3837 25.4451 22.2639 23.5858 17.9164ZM3.63326 12.6593C3.40013 12.6307 3.24092 12.4419 3.24092 12.2131C3.24092 11.9842 3.40581 11.7955 3.63326 11.7611C3.71855 11.7497 3.80384 11.7554 3.88913 11.7554C9.52974 11.7554 15.1647 11.7554 20.8053 11.7554C20.8792 11.7554 20.9588 11.7497 21.0327 11.7611C21.2659 11.7897 21.4251 11.9785 21.4251 12.2073C21.4251 12.4362 21.2602 12.6307 21.0327 12.6593C20.9417 12.6707 20.8451 12.665 20.7484 12.665H3.88913C3.80384 12.665 3.71855 12.6707 3.63326 12.6593ZM18.6332 27.0176C17.8997 27.2407 17.1491 27.3036 16.3929 27.3093C15.1135 27.3208 13.8341 27.3093 12.5547 27.3093V27.3151H8.06273C6.89139 27.3151 5.79397 27.0348 4.8444 26.5199C4.65675 26.4227 4.48048 26.314 4.30422 26.1939C4.09383 26.0566 3.89482 25.9021 3.70718 25.7419C3.43993 25.5131 3.18974 25.2614 2.9623 24.9926C2.69505 24.6779 2.46192 24.3347 2.25722 23.9686C2.06389 23.6254 1.899 23.2535 1.76822 22.8646C1.65449 22.5213 1.56352 22.1609 1.49528 21.7891C1.46685 21.6232 1.44411 21.4573 1.43274 21.2971C1.41568 21.1084 1.4043 20.9253 1.4043 20.7423C1.39862 20.2045 1.46117 19.6783 1.59195 19.1691C1.65449 18.9232 1.72841 18.6829 1.81939 18.4484C1.95017 18.0994 2.11507 17.7562 2.31408 17.4244C2.37094 17.3271 2.4278 17.2299 2.49035 17.1384C2.49604 17.1269 2.50172 17.1155 2.50741 17.1098C2.55858 17.0297 2.60976 16.9496 2.66662 16.8695C2.78603 16.6865 2.90544 16.5091 3.02484 16.3261C3.25229 15.9828 3.47973 15.6396 3.70718 15.3021C3.70718 15.3021 3.70718 15.3021 3.70718 15.2964C3.83227 15.1133 3.95168 14.9246 4.07677 14.7415C4.17912 14.587 4.28716 14.4269 4.38951 14.2724C4.50323 14.1008 4.61695 13.9292 4.73067 13.7633C4.79322 13.6775 4.93537 13.5974 5.04341 13.5974C9.90502 13.5917 14.761 13.5917 19.6226 13.5974C19.7249 13.5974 19.8614 13.6661 19.9182 13.7461C20.72 14.9474 21.5445 16.1316 22.3007 17.3615C24.524 20.9539 22.6646 25.8049 18.6332 27.0176Z" fill="#22274E"/>
</svg>
