<svg width="18" height="18" viewBox="0 0 18 18" fill="none" xmlns="http://www.w3.org/2000/svg">
    <path opacity="0.85" d="M3.81613 11.4514C5.44259 13.4083 7.46838 14.9951 9.75786 16.1057C10.7939 16.642 11.9222 16.9775 13.083 17.0943C13.1632 17.0943 13.2401 17.1009 13.3203 17.1009C13.7216 17.1129 14.1206 17.037 14.4895 16.8786C14.8584 16.7201 15.1882 16.483 15.4557 16.1837C15.4613 16.1785 15.4662 16.1726 15.47 16.1661C15.6818 15.9216 15.9065 15.6888 16.1434 15.4685C16.3071 15.3115 16.4729 15.1478 16.6355 14.9797C16.8113 14.8212 16.9517 14.6274 17.0477 14.411C17.1436 14.1946 17.1928 13.9605 17.1922 13.7238C17.1916 13.4871 17.1411 13.2531 17.0441 13.0372C16.947 12.8214 16.8055 12.6283 16.6289 12.4708L14.5308 10.365C14.3758 10.1915 14.1868 10.0518 13.9755 9.95451C13.7642 9.85719 13.5352 9.80434 13.3027 9.79923C13.0687 9.80534 12.8382 9.85813 12.6248 9.95453C12.4115 10.0509 12.2196 10.189 12.0603 10.3606L10.8113 11.6095C10.7015 11.5436 10.5773 11.4843 10.4664 11.4283C10.3351 11.3649 10.2072 11.2948 10.083 11.2185C8.88187 10.4394 7.81525 9.47035 6.92486 8.34923C6.49526 7.83135 6.13622 7.25881 5.85712 6.64657C6.18667 6.34997 6.49205 6.0391 6.78864 5.73592C6.89849 5.62607 7.00175 5.51622 7.1094 5.40637C7.2844 5.24598 7.42571 5.05236 7.5251 4.83679C7.62449 4.62123 7.67997 4.38803 7.68831 4.1508C7.68021 3.9131 7.6244 3.67946 7.52419 3.46376C7.42399 3.24807 7.28143 3.05472 7.10501 2.89523L6.06584 1.85605C5.94391 1.73412 5.82856 1.61548 5.70993 1.49355C5.48364 1.26067 5.24307 1.01571 5.0058 0.796011C4.84681 0.629675 4.65639 0.496546 4.44558 0.404339C4.23477 0.312131 4.00775 0.26268 3.77768 0.25885C3.30875 0.269319 2.86265 0.46338 2.53529 0.799307L1.23029 2.10431C0.764139 2.56046 0.480221 3.17086 0.431684 3.82125C0.384543 4.77606 0.550003 5.72943 0.916118 6.61251C1.59306 8.38231 2.57454 10.02 3.81613 11.4514ZM1.28301 3.89375C1.31667 3.44378 1.51402 3.02172 1.83775 2.70738L3.13617 1.41007C3.30323 1.23145 3.53338 1.12504 3.77768 1.11347C3.89742 1.1192 4.01477 1.149 4.12272 1.20109C4.23068 1.25318 4.32703 1.3265 4.40602 1.41666C4.64 1.63636 4.8597 1.85605 5.09697 2.10102C5.21561 2.22295 5.33754 2.34488 5.45947 2.47121L6.49864 3.51038C6.59407 3.59188 6.67235 3.69153 6.72892 3.80355C6.78549 3.91556 6.81924 4.03771 6.82819 4.16288C6.81924 4.28805 6.78549 4.4102 6.72892 4.52222C6.67235 4.63423 6.59407 4.73389 6.49864 4.81538C6.38879 4.92523 6.27894 5.03508 6.1691 5.14493C5.83955 5.47448 5.54076 5.78315 5.20572 6.07975L5.18814 6.09732C5.08186 6.19204 5.00787 6.31764 4.97655 6.45651C4.94523 6.59539 4.95815 6.74059 5.01348 6.87176C5.01348 6.88274 5.02008 6.88933 5.02447 6.89922C5.33735 7.61842 5.75167 8.28909 6.25478 8.89078C7.20077 10.0892 8.33707 11.1242 9.61835 11.9545C9.76726 12.0463 9.9209 12.1303 10.0786 12.206C10.2099 12.2694 10.3378 12.3395 10.462 12.4158L10.5004 12.4367C10.6045 12.4926 10.7206 12.5224 10.8388 12.5235C10.9368 12.5203 11.0332 12.4977 11.1224 12.457C11.2116 12.4162 11.2918 12.3582 11.3584 12.2862L12.6645 10.9801C12.7451 10.8888 12.843 10.8143 12.9525 10.7609C13.0621 10.7076 13.1811 10.6764 13.3027 10.6692C13.4213 10.6766 13.5371 10.708 13.6432 10.7614C13.7493 10.8149 13.8435 10.8893 13.92 10.9801L16.0236 13.0804C16.1223 13.16 16.2016 13.2609 16.2558 13.3755C16.31 13.4901 16.3376 13.6154 16.3365 13.7422C16.3355 13.8689 16.3058 13.9938 16.2497 14.1074C16.1936 14.2211 16.1126 14.3206 16.0127 14.3986C15.8666 14.5557 15.7128 14.7051 15.5491 14.8622C15.2929 15.1016 15.0495 15.3542 14.8197 15.619C14.632 15.8282 14.4005 15.9935 14.1418 16.1033C13.883 16.213 13.6033 16.2644 13.3225 16.254C13.2631 16.254 13.2005 16.254 13.1412 16.2474C12.091 16.1391 11.0707 15.8339 10.1335 15.3477C7.95366 14.2905 6.02543 12.7788 4.47852 10.9142C3.30139 9.55562 2.36886 8.00314 1.72241 6.32581C1.39754 5.5577 1.24746 4.72698 1.28301 3.89375Z" fill="#545D75" stroke="#545D75" stroke-width="0.2"/>
</svg>
