<svg width="18" height="22" viewBox="0 0 18 22" fill="none" xmlns="http://www.w3.org/2000/svg">
    <path opacity="0.847" d="M8.83732 11.2379C9.90878 11.2379 10.9562 10.9202 11.8471 10.3249C12.7379 9.72965 13.4323 8.88358 13.8423 7.89368C14.2523 6.90379 14.3596 5.81453 14.1506 4.76366C13.9415 3.71279 13.4256 2.7475 12.668 1.98986C11.9104 1.23223 10.945 0.716265 9.89417 0.507234C8.8433 0.298203 7.75402 0.405482 6.76413 0.815511C5.77423 1.22554 4.92815 1.91992 4.33288 2.8108C3.73761 3.70169 3.41992 4.74908 3.41992 5.82054C3.4217 7.25677 3.99299 8.63368 5.00856 9.64925C6.02413 10.6648 7.40109 11.2362 8.83732 11.2379ZM8.83732 1.61929C9.66825 1.61929 10.4805 1.86569 11.1714 2.32733C11.8623 2.78897 12.4007 3.4451 12.7187 4.21278C13.0367 4.98046 13.1199 5.8252 12.9578 6.64016C12.7957 7.45512 12.3956 8.2037 11.808 8.79125C11.2205 9.37881 10.4719 9.77894 9.6569 9.94105C8.84194 10.1032 7.99721 10.02 7.22953 9.70197C6.46186 9.38399 5.80576 8.84551 5.34412 8.15462C4.88248 7.46373 4.63606 6.65146 4.63606 5.82054C4.63754 4.70675 5.08065 3.63901 5.86821 2.85144C6.65578 2.06388 7.72354 1.62077 8.83732 1.61929Z" fill="#545D75"/>
    <path opacity="0.847" d="M13.5017 13.6246H4.17564C3.15092 13.6258 2.16853 14.0334 1.44394 14.758C0.719345 15.4826 0.311729 16.465 0.310547 17.4897V17.8761C0.311729 18.9009 0.719345 19.8833 1.44394 20.6078C2.16853 21.3324 3.15092 21.74 4.17564 21.7412H13.5017C14.5264 21.74 15.5088 21.3324 16.2334 20.6078C16.958 19.8833 17.3656 18.9009 17.3668 17.8761V17.4897C17.3656 16.465 16.958 15.4826 16.2334 14.758C15.5088 14.0334 14.5264 13.6258 13.5017 13.6246ZM16.1506 17.8761C16.1497 18.5784 15.8703 19.2516 15.3737 19.7482C14.8772 20.2448 14.204 20.5242 13.5017 20.5251H4.17564C3.47337 20.5242 2.8001 20.2448 2.30352 19.7482C1.80694 19.2516 1.52757 18.5784 1.52668 17.8761V17.4897C1.52757 16.7875 1.80694 16.1142 2.30352 15.6176C2.8001 15.121 3.47337 14.8417 4.17564 14.8408H13.5017C14.204 14.8417 14.8772 15.121 15.3737 15.6176C15.8703 16.1142 16.1497 16.7875 16.1506 17.4897V17.8761Z" fill="#545D75"/>
</svg>
