<svg width="132" height="148" viewBox="0 0 132 148" fill="none" xmlns="http://www.w3.org/2000/svg">
    <path d="M57.5 2.92603C62.7598 -0.110723 69.2402 -0.110725 74.5 2.92603L123.318 31.1111C128.578 34.1478 131.818 39.76 131.818 45.8335V102.204C131.818 108.277 128.578 113.889 123.318 116.926L74.5 145.111C69.2402 148.148 62.7598 148.148 57.5 145.111L8.68207 116.926C3.42225 113.889 0.182068 108.277 0.182068 102.204V45.8335C0.182068 39.76 3.42225 34.1478 8.68207 31.1111L57.5 2.92603Z" fill="#24B8B9"/>
    <path d="M57.1817 54.1288V50.2519C57.8669 50.4142 58.5521 50.7207 59.2554 51.1355C59.4537 51.2617 59.6521 51.3158 59.8685 51.3158C60.4996 51.3158 61.0045 50.8289 61.0045 50.1978C61.0045 49.711 60.716 49.4224 60.3914 49.2241C59.4537 48.6471 58.462 48.2504 57.2719 48.1061V47.6553C57.2719 47.1685 56.8932 46.7898 56.4064 46.7898C55.9195 46.7898 55.5228 47.1685 55.5228 47.6553V48.0701C54.7294 48.1422 54.0081 48.3225 53.4131 48.629C52.6557 49.0077 52.0787 49.5487 51.7181 50.2159C51.4476 50.7207 51.3033 51.2978 51.3033 51.9289C51.3033 52.8485 51.5377 53.5878 51.9885 54.1829C52.6738 55.0484 53.8639 55.6254 55.613 56.0942V60.0613C54.495 59.8629 53.5753 59.3941 52.6197 58.7089C52.4393 58.5646 52.1869 58.4925 51.9525 58.4925C51.3214 58.4925 50.8525 58.9793 50.8525 59.5924C50.8525 60.0072 51.0509 60.3317 51.3935 60.5661C52.6197 61.4317 54.0081 61.9726 55.5228 62.1349V63.3791C55.5228 63.866 55.9195 64.2446 56.4064 64.2446C56.8932 64.2446 57.2719 63.866 57.2719 63.3791V62.171C59.8324 61.9366 61.5635 60.458 61.5635 58.24C61.5635 57.5729 61.4372 56.9958 61.1848 56.4909C60.5897 55.409 59.3095 54.6517 57.1817 54.1288ZM55.5949 53.714C55.2884 53.6058 55.0179 53.5157 54.7835 53.4075C53.8999 52.9928 53.6475 52.5239 53.6475 51.8387C53.6475 50.9552 54.2966 50.2699 55.5769 50.1437V53.714H55.5949ZM57.1817 60.1875V56.509C57.2178 56.527 57.2539 56.527 57.2719 56.545C58.7505 57.0139 59.1652 57.5548 59.1652 58.4384C59.1833 59.3941 58.48 60.0432 57.1817 60.1875Z" fill="#FEFEFE"/>
    <path d="M99.5387 67.6165C100.026 67.6165 100.476 67.328 100.675 66.8953C100.873 66.4625 100.819 65.9396 100.512 65.5609L91.4604 54.4533L83.7247 44.9685C83.4903 44.68 83.1297 44.4997 82.751 44.4997C82.3723 44.4997 82.0117 44.662 81.7773 44.9685L76.6923 51.2075C74.6727 41.5244 66.0535 34.3297 55.9016 34.3297C44.1809 34.3297 34.66 43.8505 34.66 55.5712C34.66 67.292 44.1989 76.8128 55.9016 76.8128C61.78 76.8128 67.2617 74.4326 71.2287 70.2672C69.9664 74.0359 67.6583 77.3898 64.4847 79.9323C60.1391 83.4305 54.6934 85.0173 49.1577 84.4042C43.6219 83.7911 38.6451 81.0683 35.1469 76.7226C34.6781 76.1456 34.2453 75.5506 33.8666 74.9375C33.524 74.3965 32.8208 74.1982 32.2438 74.4867C31.6667 74.7752 31.3963 75.4424 31.6307 76.0554C32.8208 79.2651 34.5158 82.2584 36.6796 84.9452C39.168 88.0466 42.1613 90.6252 45.5693 92.5907C48.7069 94.3939 52.0969 95.6561 55.6672 96.3233C57.5966 96.6839 59.562 96.8642 61.5275 96.8642C62.357 96.8642 63.1684 96.8282 63.9979 96.7741C67.4961 96.5036 70.8861 95.6561 74.0957 94.2676C76.7103 93.1316 79.1807 91.653 81.4347 89.8498C81.7593 89.5974 82.0838 89.3269 82.4264 89.0204C87.5114 84.5845 91.0096 78.7602 92.5243 72.1786C92.8669 70.6819 93.1013 69.1492 93.2275 67.6165H99.5387ZM55.8835 67.6165C49.2478 67.6165 43.8383 62.207 43.8383 55.5712C43.8383 48.9355 49.2478 43.526 55.8835 43.526C62.5193 43.526 67.9288 48.9355 67.9288 55.5712C67.9288 62.207 62.5193 67.6165 55.8835 67.6165ZM55.8835 74.2883C45.5693 74.2883 37.1665 65.8855 37.1665 55.5712C37.1665 45.257 45.5693 36.8542 55.8835 36.8542C65.5667 36.8542 73.6449 44.2833 74.5285 53.8582L71.8237 57.1581L69.9123 59.5022C70.273 58.258 70.4533 56.9236 70.4533 55.5712C70.4533 47.529 63.9077 41.0015 55.8835 41.0015C47.8594 41.0015 41.3138 47.5471 41.3138 55.5712C41.3138 63.5954 47.8594 70.141 55.8835 70.141C59.2735 70.141 62.393 68.9689 64.8814 67.0215C65.1159 67.4002 65.5126 67.6165 65.9453 67.6165H70.2008C66.6666 71.836 61.4554 74.2883 55.8835 74.2883ZM92.0374 65.0921C91.3703 65.0921 90.8113 65.615 90.7752 66.3002C90.7031 68.0854 90.4506 69.8705 90.0539 71.6196C88.6655 77.6783 85.4378 83.0338 80.7495 87.127C80.4249 87.4155 80.1184 87.668 79.8299 87.9024C77.7562 89.5613 75.4842 90.9317 73.0679 91.9776C70.1107 93.2578 66.9912 94.0332 63.7635 94.2676C61.2029 94.466 58.6244 94.3217 56.0999 93.8529C52.8001 93.2398 49.6806 92.0858 46.7955 90.4268C43.6579 88.6056 40.8991 86.2435 38.609 83.3944C38.5549 83.3223 38.4828 83.2502 38.4287 83.16C41.5121 85.2156 45.0644 86.532 48.8691 86.9467C55.0901 87.6319 61.1849 85.8467 66.0535 81.9338C70.832 78.093 73.8793 72.6294 74.6367 66.5346C74.6727 66.174 74.5646 65.8133 74.3301 65.5429C74.0957 65.2724 73.7531 65.1101 73.3925 65.1101H72.7073H68.614L82.751 47.7815L89.513 56.0761L96.888 65.1281H92.0374V65.0921Z" fill="#FEFEFE"/>
    <path d="M55.2526 98.4511C52.2774 97.8921 49.4103 96.9544 46.7236 95.6742C46.3269 95.4938 45.8761 95.5119 45.4974 95.7463C45.1368 95.9807 44.9023 96.3774 44.9023 96.8102V112.786C44.9023 113.49 45.4613 114.049 46.1646 114.049H55.8838C56.587 114.049 57.146 113.49 57.146 112.786V99.8395C57.146 99.2264 56.6952 98.6855 56.0821 98.5953C55.7936 98.5412 55.5231 98.5052 55.2526 98.4511ZM54.6215 111.524H47.4448V98.7576C49.7529 99.7133 52.1512 100.435 54.6215 100.903V111.524Z" fill="#FEFEFE"/>
    <path d="M73.14 96.9724C70.2369 98.0362 67.2075 98.6854 64.1241 98.9198C64.0159 98.9198 63.9077 98.9378 63.7995 98.9378C63.1323 98.9739 62.6094 99.5329 62.6094 100.2V112.768C62.6094 113.472 63.1684 114.031 63.8716 114.031H73.5728C74.276 114.031 74.835 113.472 74.835 112.768V98.1625C74.835 97.7477 74.6366 97.3691 74.294 97.1346C73.9695 96.8822 73.5367 96.8281 73.14 96.9724ZM72.3105 111.524H65.1338V101.372C67.5681 101.138 69.9844 100.651 72.3105 99.9116V111.524Z" fill="#FEFEFE"/>
    <path d="M91.6409 82.6912C91.0999 82.5289 90.5229 82.7453 90.2164 83.2322C88.4673 85.9911 86.3215 88.4794 83.8331 90.6433C83.4364 90.9859 83.0938 91.2744 82.7692 91.5268C82.1381 92.0317 81.507 92.5006 80.8579 92.9513C80.5152 93.1858 80.3169 93.5825 80.3169 93.9792V112.75C80.3169 113.454 80.8759 114.013 81.5791 114.013H91.2803C91.9835 114.013 92.5425 113.454 92.5425 112.75V83.8994C92.5425 83.3404 92.1819 82.8535 91.6409 82.6912ZM90.018 111.524H82.8414V94.6644C83.3462 94.3037 83.8511 93.907 84.338 93.5284C84.6806 93.2579 85.0593 92.9333 85.474 92.5727C87.1329 91.1301 88.6476 89.5433 90 87.8483V111.524H90.018Z" fill="#FEFEFE"/>
</svg>
