<svg width="132" height="148" viewBox="0 0 132 148" fill="none" xmlns="http://www.w3.org/2000/svg">
    <path d="M57.5 2.92603C62.7598 -0.110723 69.2402 -0.110725 74.5 2.92603L123.318 31.1111C128.578 34.1478 131.818 39.76 131.818 45.8335V102.204C131.818 108.277 128.578 113.889 123.318 116.926L74.5 145.111C69.2402 148.148 62.7598 148.148 57.5 145.111L8.68207 116.926C3.42225 113.889 0.182068 108.277 0.182068 102.204V45.8335C0.182068 39.76 3.42225 34.1478 8.68207 31.1111L57.5 2.92603Z" fill="#24B8B9"/>
    <path d="M105.948 57.4353C105.948 57.4173 105.948 57.3993 105.948 57.3632C105.948 57.3271 105.93 57.2911 105.93 57.2731C105.93 57.255 105.93 57.237 105.912 57.219C105.894 57.1829 105.894 57.1468 105.876 57.1108C105.876 57.0927 105.858 57.0747 105.858 57.0747C105.84 57.0206 105.821 56.9845 105.785 56.9304L105.767 56.9124C105.749 56.8764 105.713 56.8403 105.695 56.8042C105.677 56.7862 105.677 56.7682 105.659 56.7682C105.641 56.7501 105.623 56.7141 105.587 56.696C105.569 56.678 105.551 56.66 105.533 56.6419C105.515 56.6239 105.497 56.6059 105.479 56.5878L90.4944 44.3262C87.0503 37.5462 80.9195 32.5333 73.6166 30.5318L67.2333 25.3026C66.7645 24.9239 66.0973 24.9239 65.6285 25.3026L59.2452 30.5138C57.9108 30.8744 56.5945 31.3613 55.3323 31.9203C49.7424 34.4447 45.1443 38.8445 42.3674 44.3262L27.3829 56.5878C27.3649 56.6059 27.3468 56.6239 27.3288 56.6419C27.3108 56.66 27.2927 56.678 27.2747 56.678C27.2567 56.696 27.2206 56.7321 27.2026 56.7501C27.1845 56.7682 27.1845 56.7682 27.1665 56.7862C27.1304 56.8223 27.1124 56.8583 27.0944 56.8944C27.0944 56.8944 27.0944 56.9124 27.0763 56.9124C27.0583 56.9665 27.0223 57.0026 27.0042 57.0567C27.0042 57.0747 26.9862 57.0927 26.9862 57.0927C26.9682 57.1288 26.9682 57.1649 26.9501 57.2009C26.9501 57.219 26.9321 57.237 26.9321 57.255C26.9321 57.2911 26.9141 57.3271 26.9141 57.3452C26.9141 57.3632 26.9141 57.3812 26.9141 57.4173C26.9141 57.4534 26.9141 57.4894 26.9141 57.5075C26.9141 57.5255 26.9141 57.5255 26.9141 57.5435V93.7876C26.9141 99.8102 31.8007 104.697 37.8233 104.697H95.0024C101.025 104.697 105.912 99.8102 105.912 93.7876V57.5435C105.912 57.5255 105.912 57.5255 105.912 57.5075C105.948 57.5075 105.948 57.4714 105.948 57.4353ZM102.504 57.3993L101.999 57.7058L92.55 63.3859C92.5681 63.3318 92.5681 63.2957 92.5861 63.2416C92.6402 63.0613 92.6763 62.8629 92.7304 62.6826C92.7484 62.6105 92.7664 62.5384 92.7845 62.4662C92.8385 62.2138 92.8926 61.9613 92.9467 61.7089C92.9467 61.6909 92.9467 61.6728 92.9648 61.6548C93.0189 61.4204 93.0549 61.186 93.091 60.9516C93.109 60.8794 93.109 60.7893 93.1271 60.7171C93.1631 60.5368 93.1812 60.3385 93.2172 60.1581C93.2353 60.086 93.2353 60.0139 93.2533 59.9237C93.2893 59.6713 93.3074 59.4008 93.3434 59.1484C93.3434 59.1303 93.3434 59.1303 93.3434 59.1123C93.3615 58.8599 93.3795 58.6074 93.3975 58.355C93.3975 58.2828 93.4156 58.1927 93.4156 58.1206C93.4336 57.9222 93.4336 57.7419 93.4516 57.5435C93.4516 57.4714 93.4516 57.3812 93.4516 57.3091C93.4516 57.0386 93.4697 56.7862 93.4697 56.5157C93.4697 56.2272 93.4697 55.9387 93.4516 55.6322C93.4516 55.542 93.4516 55.4518 93.4336 55.3617C93.4336 55.1633 93.4156 54.965 93.3975 54.7666C93.3975 54.6584 93.3795 54.5502 93.3795 54.442C93.3615 54.2437 93.3434 54.0634 93.3254 53.8831C93.3074 53.7749 93.3074 53.6847 93.2893 53.5765C93.2713 53.3782 93.2353 53.1618 93.2172 52.9634C93.1992 52.8733 93.1992 52.8012 93.1812 52.711C93.1451 52.4225 93.091 52.134 93.0549 51.8635C93.0549 51.8274 93.0369 51.7914 93.0369 51.7553C93.0008 51.5029 92.9467 51.2684 92.8926 51.016C92.8746 50.9258 92.8566 50.8357 92.8385 50.7275C92.8025 50.5472 92.7484 50.3488 92.7123 50.1685C92.6943 50.0603 92.6582 49.9701 92.6402 49.862C92.5861 49.6816 92.55 49.5013 92.4959 49.321C92.4779 49.2489 92.4599 49.1948 92.4418 49.1227L102.504 57.3993ZM66.4579 27.9172L68.5677 29.6482C67.1792 29.54 65.7547 29.54 64.3482 29.6482L66.4579 27.9172ZM56.4142 34.2283C57.6404 33.6874 58.9026 33.2366 60.2009 32.894C63.2663 32.0825 66.494 31.8842 69.6315 32.2989C70.4069 32.4071 71.2003 32.5333 71.9577 32.7137C72.2101 32.7677 72.4626 32.8399 72.715 32.894C79.531 34.6972 85.2291 39.3674 88.3666 45.6966C90.0436 49.0866 90.8911 52.729 90.8911 56.5157C90.8911 56.7141 90.8911 56.9124 90.8911 57.0927C90.8911 57.1649 90.8911 57.219 90.8911 57.2731C90.8911 57.3993 90.8911 57.5435 90.8731 57.6698C90.8731 57.7419 90.8731 57.814 90.855 57.9042C90.855 58.0124 90.837 58.1386 90.837 58.2468C90.837 58.3369 90.819 58.4091 90.819 58.4992C90.819 58.6074 90.8009 58.7156 90.7829 58.8238C90.7829 58.914 90.7649 58.9861 90.7649 59.0762C90.7468 59.1844 90.7469 59.2926 90.7288 59.4008C90.7108 59.491 90.7108 59.5811 90.6928 59.6533C90.6747 59.7615 90.6747 59.8696 90.6567 59.9598C90.6387 60.05 90.6387 60.1401 90.6206 60.2122C90.6026 60.3204 90.5846 60.4106 90.5665 60.5188C90.5485 60.6089 90.5305 60.6991 90.5124 60.7893C90.4944 60.8975 90.4764 60.9876 90.4583 61.0958C90.4403 61.186 90.4223 61.2761 90.4042 61.3663C90.3862 61.4745 90.3682 61.5646 90.3502 61.6728C90.3321 61.763 90.3141 61.8531 90.2961 61.9433C90.278 62.0515 90.242 62.1417 90.2239 62.2498C90.2059 62.34 90.1879 62.4302 90.1518 62.5023C90.1338 62.6105 90.0977 62.7006 90.0797 62.7908C90.0616 62.881 90.0256 62.9711 90.0075 63.0432C89.9715 63.1334 89.9535 63.2416 89.9174 63.3318C89.8994 63.4219 89.8633 63.5121 89.8453 63.5842C89.8092 63.6744 89.7912 63.7826 89.7551 63.8727C89.719 63.9629 89.701 64.035 89.6649 64.1252C89.6289 64.2153 89.5928 64.3235 89.5568 64.4137C89.5207 64.5038 89.5027 64.576 89.4666 64.6661C89.4305 64.7563 89.3945 64.8645 89.3584 64.9546C89.3223 65.0448 89.3043 65.1169 89.2682 65.2071C89.2502 65.2431 89.2502 65.2612 89.2322 65.2972L66.4579 79.0375L43.6657 65.3694C43.6657 65.3513 43.6476 65.3333 43.6476 65.3153C43.6116 65.2431 43.5935 65.153 43.5575 65.0809C43.5214 64.9907 43.4853 64.9005 43.4673 64.8104C43.4312 64.7382 43.4132 64.6481 43.3772 64.576C43.3411 64.4858 43.3231 64.3956 43.287 64.3055C43.269 64.2333 43.2329 64.1432 43.2149 64.0711C43.1788 63.9809 43.1608 63.8907 43.1247 63.8006C43.1067 63.7285 43.0706 63.6383 43.0526 63.5662C43.0345 63.476 42.9985 63.3859 42.9805 63.2957C42.9624 63.2055 42.9264 63.1334 42.9083 63.0432C42.8903 62.9531 42.8542 62.8629 42.8362 62.7728C42.8182 62.6826 42.8001 62.6105 42.7641 62.5203C42.746 62.4302 42.728 62.34 42.6919 62.2679C42.6739 62.1777 42.6559 62.1056 42.6378 62.0154C42.6198 61.9253 42.6018 61.8531 42.5837 61.763C42.5657 61.6728 42.5477 61.5827 42.5297 61.5105C42.5116 61.4204 42.4936 61.3483 42.4756 61.2581C42.4575 61.1679 42.4395 61.0778 42.4215 60.9876C42.4034 60.8975 42.3854 60.8253 42.3854 60.7352C42.3674 60.645 42.3493 60.5549 42.3313 60.4647C42.3133 60.3926 42.3133 60.3024 42.2952 60.2303C42.2772 60.1401 42.2592 60.05 42.2592 59.9418C42.2411 59.8696 42.2411 59.7795 42.2231 59.7074C42.2051 59.6172 42.2051 59.509 42.187 59.4188C42.169 59.3467 42.169 59.2566 42.169 59.1844C42.151 59.0943 42.151 58.9861 42.133 58.8959C42.133 58.8238 42.1149 58.7336 42.1149 58.6615C42.1149 58.5713 42.0969 58.4632 42.0969 58.373C42.0969 58.2828 42.0789 58.1927 42.0789 58.1206C42.0789 58.0304 42.0608 57.9402 42.0608 57.8501C42.0608 57.7058 42.0428 57.5616 42.0428 57.4353C42.0428 57.3993 42.0428 57.3632 42.0428 57.3271C42.0248 57.0567 42.0248 56.7682 42.0248 56.5337C42.0248 56.2993 42.0248 56.0649 42.0428 55.8305C42.0608 55.3797 42.0789 54.9109 42.1149 54.4601C42.133 54.1716 42.169 53.9011 42.2051 53.6126C42.5297 50.8717 43.3231 48.2211 44.5492 45.7146C47.0376 40.6296 51.2571 36.5544 56.4142 34.2283ZM40.5101 49.1407C40.4921 49.1948 40.474 49.2669 40.456 49.321C40.4019 49.5013 40.3658 49.6816 40.3117 49.862C40.2937 49.9701 40.2576 50.0603 40.2396 50.1685C40.1855 50.3488 40.1494 50.5472 40.1134 50.7275C40.0954 50.8176 40.0773 50.9078 40.0593 51.016C40.0052 51.2504 39.9691 51.4848 39.915 51.7373C39.915 51.7733 39.897 51.8274 39.897 51.8635C39.8429 52.152 39.8068 52.4225 39.7708 52.711C39.7527 52.8012 39.7527 52.8733 39.7347 52.9634C39.7167 53.1618 39.6806 53.3601 39.6626 53.5765C39.6446 53.6847 39.6446 53.7929 39.6265 53.8831C39.6085 54.0634 39.5905 54.2617 39.5724 54.442C39.5724 54.5502 39.5544 54.6584 39.5544 54.7666C39.5364 54.965 39.5364 55.1633 39.5183 55.3617C39.5183 55.4518 39.5183 55.542 39.5003 55.6322C39.4823 55.9207 39.4823 56.2092 39.4823 56.4977C39.4823 56.678 39.4823 56.8944 39.4823 57.1288C39.4823 57.219 39.4823 57.3091 39.4823 57.3993C39.4823 57.4173 39.4823 57.4173 39.4823 57.4353C39.4823 57.6517 39.5003 57.8681 39.5183 58.0845C39.5183 58.1566 39.5364 58.2287 39.5364 58.3009C39.5544 58.4632 39.5544 58.6254 39.5724 58.7697C39.5724 58.8418 39.5905 58.932 39.5905 59.0041C39.6085 59.1664 39.6265 59.3287 39.6446 59.491C39.6446 59.5631 39.6626 59.6172 39.6626 59.6893C39.6806 59.9237 39.7167 60.1401 39.7527 60.3745C39.7527 60.4106 39.7708 60.4467 39.7708 60.5008C39.8068 60.6811 39.8249 60.8794 39.8609 61.0597C39.879 61.1319 39.879 61.204 39.897 61.2942C39.9331 61.4564 39.9511 61.6007 39.9872 61.763C40.0052 61.8351 40.0232 61.9253 40.0413 61.9974C40.0773 62.1597 40.1134 62.34 40.1494 62.5023C40.1675 62.5564 40.1675 62.6105 40.1855 62.6646C40.2396 62.881 40.2937 63.1154 40.3478 63.3318C40.3478 63.3498 40.3478 63.3498 40.3478 63.3678L30.3942 57.3993L40.5101 49.1407ZM95.0565 102.19H37.8594C33.2432 102.19 29.4926 98.4218 29.4926 93.8056V59.7975L36.5431 64.035L42.0067 67.3168L65.8088 81.598C66.0071 81.7243 66.2416 81.7784 66.4579 81.7784C66.6743 81.7784 66.9087 81.7243 67.1071 81.598L101.097 61.204L103.441 59.7975V93.8056C103.423 98.4218 99.6726 102.19 95.0565 102.19Z" fill="#FEFEFE"/>
    <path d="M56.5574 66.8652C59.0819 68.6504 61.9309 69.7684 65.0504 70.0929V72.6535C65.0504 73.6452 65.8799 74.4386 66.8717 74.4386C67.8634 74.4386 68.6568 73.6452 68.6568 72.6535V70.1651C73.9041 69.6602 77.4744 66.6488 77.4744 62.0868C77.4744 57.6509 74.7876 55.1265 68.4945 53.5577V45.6057C69.901 45.9302 71.3075 46.5614 72.75 47.4269C73.1648 47.6793 73.5795 47.8056 73.9942 47.8056C75.2745 47.8056 76.3204 46.8138 76.3204 45.5335C76.3204 44.5418 75.7433 43.9107 75.0762 43.55C73.1648 42.3419 71.1091 41.5665 68.6568 41.278V40.3584C68.6568 39.3666 67.8634 38.5732 66.8717 38.5732C65.8799 38.5732 65.0504 39.3666 65.0504 40.3584V41.2239C59.8753 41.6387 56.3591 44.7041 56.3591 49.1219C56.3591 53.7921 59.1721 56.0822 65.2127 57.6509V65.8013C62.9407 65.3866 61.0293 64.4309 59.0819 63.0244C58.7032 62.7359 58.2164 62.5736 57.7115 62.5736C56.4312 62.5736 55.4395 63.5654 55.4395 64.8457C55.4395 65.7473 55.8542 66.4144 56.5574 66.8652ZM68.4765 58.4624C71.6681 59.4541 72.5697 60.5721 72.5697 62.3933C72.5697 64.3768 71.1272 65.7112 68.4765 65.9997V58.4624ZM61.2457 48.8694C61.2457 47.0482 62.562 45.6417 65.2127 45.3893V52.7102C62.0211 51.6824 61.2457 50.6005 61.2457 48.8694Z" fill="#FEFEFE"/>
</svg>
