<svg width="132" height="148" viewBox="0 0 132 148" fill="none" xmlns="http://www.w3.org/2000/svg">
    <path d="M57.5 2.92603C62.7598 -0.110723 69.2402 -0.110725 74.5 2.92603L123.318 31.1111C128.578 34.1478 131.818 39.76 131.818 45.8335V102.204C131.818 108.277 128.578 113.889 123.318 116.926L74.5 145.111C69.2402 148.148 62.7598 148.148 57.5 145.111L8.68207 116.926C3.42225 113.889 0.182068 108.277 0.182068 102.204V45.8335C0.182068 39.76 3.42225 34.1478 8.68207 31.1111L57.5 2.92603Z" fill="#24B8B9"/>
    <path d="M48.0259 38.8772L47.4267 38.7274C47.2178 38.6752 46.9998 38.6713 46.7892 38.716C46.5786 38.7607 46.381 38.8528 46.2113 38.9853C46.0416 39.1178 45.9044 39.2872 45.81 39.4807C45.7156 39.6741 45.6665 39.8866 45.6665 40.1019V53.8184C45.6665 60.1447 47.4785 66.3386 50.8881 71.6674C54.2977 76.9963 59.1622 81.2371 64.9062 83.8882C65.0923 83.9741 65.2948 84.0185 65.4998 84.0185C65.7048 84.0185 65.9074 83.9741 66.0935 83.8882C71.8375 81.2371 76.702 76.9963 80.1116 71.6674C83.5212 66.3386 85.3331 60.1447 85.3332 53.8184V40.1019C85.3332 39.8866 85.2841 39.6741 85.1897 39.4807C85.0953 39.2872 84.958 39.1178 84.7884 38.9853C84.6187 38.8528 84.421 38.7607 84.2104 38.716C83.9998 38.6713 83.7818 38.6752 83.573 38.7274L82.9737 38.8773C80.0155 39.606 76.9123 39.4911 74.0161 38.5457C71.1199 37.6002 68.5466 35.8621 66.5881 33.5284C66.4552 33.3688 66.2888 33.2404 66.1007 33.1523C65.9127 33.0642 65.7075 33.0186 65.4998 33.0186C65.2922 33.0186 65.087 33.0642 64.899 33.1523C64.7109 33.2404 64.5445 33.3688 64.4116 33.5284C62.4531 35.8621 59.8798 37.6003 56.9836 38.5457C54.0873 39.4911 50.9841 39.606 48.0259 38.8772ZM65.4998 36.541C67.6316 38.6982 70.2484 40.3143 73.1319 41.2543C76.1533 42.2421 79.3741 42.4566 82.4998 41.8782V53.8184C82.489 59.4894 80.891 65.0441 77.8866 69.8539C74.8822 74.6637 70.5914 78.5364 65.4998 81.0337C60.4083 78.5364 56.1175 74.6637 53.1131 69.8539C50.1087 65.0441 48.5106 59.4894 48.4998 53.8184V41.8782C51.6256 42.4563 54.8463 42.2418 57.8678 41.2543C60.7513 40.3143 63.3681 38.6982 65.4998 36.541Z" fill="#FEFEFE"/>
    <path d="M106.583 35.852C106.583 35.4762 106.434 35.1159 106.168 34.8502C105.903 34.5846 105.542 34.4353 105.167 34.4353H93.8333C93.4576 34.4353 93.0973 34.5846 92.8316 34.8502C92.5659 35.1159 92.4167 35.4762 92.4167 35.852V45.7686H88.1667V48.602H92.4167V115.185H83.9167V74.102H81.0833V115.185H72.5833V84.0186H69.75V115.185H61.25V85.4353H58.4167V115.185H49.9167V84.0186H55.5833V81.1853H48.5C48.1243 81.1853 47.7639 81.3346 47.4983 81.6002C47.2326 81.8659 47.0833 82.2262 47.0833 82.602V93.9353H37.1667C36.7909 93.9353 36.4306 94.0846 36.1649 94.3502C35.8993 94.6159 35.75 94.9762 35.75 95.352V102.435H25.8333C25.4576 102.435 25.0973 102.585 24.8316 102.85C24.5659 103.116 24.4167 103.476 24.4167 103.852V115.185H23V118.019H108V115.185H106.583V35.852ZM27.25 105.269H35.75V115.185H27.25V105.269ZM38.5833 96.7686H47.0833V115.185H38.5833V96.7686ZM95.25 115.185V37.2686H103.75V115.185H95.25Z" fill="#FEFEFE"/>
    <path d="M61.7817 46.6539H69.0422L67.4484 60.6435H63.3755L61.7817 46.6539Z" fill="#FEFEFE"/>
    <circle cx="65.4997" cy="66.1332" r="2.47917" fill="#FEFEFE"/>
</svg>
